STARTFONT 2.1
COMMENT
COMMENT Converted from OpenType font "FreeUniversal-Regular.ttf" by "otf2bdf 3.0".
COMMENT
FONT -FreeType-FreeUniversal-Medium-R-Normal--58-580-72-72-P-271-ISO10646-1
SIZE 58 72 72
FONTBOUNDINGBOX 78 76 -4 -15
STARTPROPERTIES 19
FOUNDRY "FreeType"
FAMILY_NAME "FreeUniversal"
WEIGHT_NAME "Medium"
SLANT "R"
SETWIDTH_NAME "Normal"
ADD_STYLE_NAME ""
PIXEL_SIZE 58
POINT_SIZE 580
RESOLUTION_X 72
RESOLUTION_Y 72
SPACING "P"
AVERAGE_WIDTH 271
CHARSET_REGISTRY "ISO10646"
CHARSET_ENCODING "1"
FONT_ASCENT 60
FONT_DESCENT 14
COPYRIGHT "(FreeUniversal) Copyright (c) Stephen Wilson 2009    a modification of:    Original Font (SIL Sophia)  Copyright (c) SIL International, 1994-2008.    "
_OTF_FONTFILE "FreeUniversal-Regular.ttf"
_OTF_PSNAME "FreeUniversal-Regular"
ENDPROPERTIES
CHARS 243
STARTCHAR 0020
ENCODING 32
SWIDTH 293 0
DWIDTH 17 0
BBX 0 0 0 0
BITMAP
ENDCHAR
STARTCHAR 0021
ENCODING 33
SWIDTH 379 0
DWIDTH 22 0
BBX 6 42 8 0
BITMAP
7C
7C
7C
7C
7C
7C
7C
7C
7C
7C
7C
7C
7C
7C
7C
7C
7C
7C
7C
7C
7C
7C
7C
7C
7C
7C
7C
7C
7C
7C
7C
7C
00
00
00
00
FC
FC
FC
FC
FC
FC
ENDCHAR
STARTCHAR 0022
ENCODING 34
SWIDTH 448 0
DWIDTH 26 0
BBX 18 17 4 25
BITMAP
FC0FC0
FC0FC0
FC0FC0
FC0FC0
FC0FC0
7C0FC0
7C07C0
7C07C0
7C07C0
780780
780780
780780
780780
780780
780780
780780
780780
ENDCHAR
STARTCHAR 0023
ENCODING 35
SWIDTH 741 0
DWIDTH 43 0
BBX 37 42 3 0
BITMAP
0000780F80
0000F80F00
0000F00F00
0000F00F00
0001F01F00
0001E01E00
0001E01E00
0003E03E00
0003C03C00
0003C03C00
0007C07C00
0007807800
07FFFFFFF8
0FFFFFFFF8
0FFFFFFFF8
0FFFFFFFF0
000F01F000
001F01E000
001E01E000
001E01E000
003E03E000
003C03C000
003C03C000
007C07C000
7FFFFFFF80
7FFFFFFF80
FFFFFFFF80
FFFFFFFF80
00F00F0000
00F01F0000
01F01E0000
01E01E0000
01E01E0000
03E03E0000
03C03C0000
03C03C0000
03C07C0000
07C0780000
0780780000
0780780000
0F80F80000
0F00F00000
ENDCHAR
STARTCHAR 0024
ENCODING 36
SWIDTH 551 0
DWIDTH 32 0
BBX 28 53 2 -7
BITMAP
00070000
00070000
00070000
00070000
007FF000
03FFFC00
07FFFE00
1FFFFF00
1FFFFF80
3F871F80
7E070FC0
7E0707C0
7C0707C0
7C0707C0
7C0707C0
7C070000
7C070000
7C070000
7E070000
7E070000
7FC70000
3FFF0000
1FFFC000
0FFFF800
07FFFE00
01FFFF00
003FFFC0
0007FFC0
00071FE0
000707E0
000703E0
000703F0
000703F0
000703F0
F80701F0
FC0701F0
FC0703F0
FC0703F0
7C0703F0
7E0703E0
7F0707E0
3FC71FE0
3FFFFFC0
1FFFFF80
0FFFFF00
03FFFE00
007FF000
00070000
00070000
00070000
00070000
00070000
00070000
ENDCHAR
STARTCHAR 0025
ENCODING 37
SWIDTH 931 0
DWIDTH 54 0
BBX 48 44 3 0
BITMAP
000000001E00
000000003C00
01FC00003C00
07FF00007800
1FFFC0007000
3FFFE000F000
3F07E001E000
7E03F001E000
7C01F003C000
FC01F803C000
FC01F8078000
FC01F8070000
F800F80F0000
F800F81E0000
FC01F81E0000
FC01F83C0000
FC01F83C0000
7C01F0780000
7E03F0780000
3F07E0F00000
1FFFC0E00000
0FFF81E01F00
07FF03C0FFE0
00F803C1FFF8
00000783FFFC
00000787E0FC
00000F0FC07E
00000E0F803F
00001E1F803F
00001C1F801F
00003C1F801F
0000781F001F
0000781F001F
0000F01F001F
0000F01F801F
0001E01F801F
0001C01F801F
0003C00F803F
0007800FC03E
00078007E07E
000F0007FFFC
000F0003FFF8
001E0000FFF0
001C00003F80
ENDCHAR
STARTCHAR 0026
ENCODING 38
SWIDTH 758 0
DWIDTH 44 0
BBX 39 43 3 0
BITMAP
003FF00000
00FFFC0000
01FFFF0000
03FFFF0000
07F01F8000
07E00F8000
07C00F8000
0FC007C000
0FC0078000
0FC00F8000
07E01F8000
07E01F0000
07F03F0000
03F8FE0000
01FBFC0000
00FFF00000
00FFE00000
00FF800FC0
03FF800FC0
07FFC00FC0
0FFFE00FC0
1F8FF00FC0
3F07F007C0
7F03F807C0
7E01FC0FC0
7C00FE0FC0
FC007F0F80
FC003F8F80
FC001FCF80
F8000FEF80
F80007FF00
FC0003FF00
FC0001FF00
FE0000FE00
7E00007F00
7F0001FF80
3F8003FFC0
3FE01FFFE0
1FFFFFEFF0
0FFFFFC7F8
03FFFF03FC
01FFFC01FE
003FE00000
ENDCHAR
STARTCHAR 0027
ENCODING 39
SWIDTH 362 0
DWIDTH 21 0
BBX 6 17 8 25
BITMAP
FC
FC
FC
F8
F8
F8
F8
F8
F8
F8
F8
78
78
78
78
78
70
ENDCHAR
STARTCHAR 0028
ENCODING 40
SWIDTH 362 0
DWIDTH 21 0
BBX 10 51 5 -8
BITMAP
03C0
03C0
0780
0780
0F80
0F00
1F00
1F00
1F00
3E00
3E00
3E00
3E00
7E00
7C00
7C00
7C00
7C00
FC00
FC00
FC00
FC00
FC00
F800
F800
F800
F800
F800
FC00
FC00
FC00
FC00
FC00
7C00
7C00
7C00
7C00
7E00
3E00
3E00
3E00
3E00
1F00
1F00
1F00
0F00
0F80
0780
0780
03C0
03C0
ENDCHAR
STARTCHAR 0029
ENCODING 41
SWIDTH 362 0
DWIDTH 21 0
BBX 10 51 5 -8
BITMAP
F000
7800
7800
7C00
3C00
3E00
3E00
1E00
1F00
1F00
1F00
1F80
0F80
0F80
0F80
0F80
0FC0
0FC0
07C0
07C0
07C0
07C0
07C0
07C0
07C0
07C0
07C0
07C0
07C0
07C0
07C0
07C0
07C0
0FC0
0FC0
0FC0
0F80
0F80
0F80
1F80
1F00
1F00
1F00
1E00
3E00
3E00
3C00
7C00
7800
7800
F000
ENDCHAR
STARTCHAR 002A
ENCODING 42
SWIDTH 637 0
DWIDTH 37 0
BBX 23 22 7 20
BITMAP
030180
0783C0
0F83E0
0783C0
07C7C0
03C780
01EF00
00EE00
00FE00
FE7CFE
FFFFFE
FFFFFE
FE7CFE
007C00
00EE00
01EF00
03C780
03C780
07C3C0
0F83E0
0F83E0
030180
ENDCHAR
STARTCHAR 002B
ENCODING 43
SWIDTH 1017 0
DWIDTH 59 0
BBX 35 35 12 0
BITMAP
0001E00000
0001E00000
0001E00000
0001E00000
0001E00000
0001E00000
0001E00000
0001E00000
0001E00000
0001E00000
0001E00000
0001E00000
0001E00000
0001E00000
0001E00000
FFFFFFFFE0
FFFFFFFFE0
FFFFFFFFE0
FFFFFFFFE0
0001E00000
0001E00000
0001E00000
0001E00000
0001E00000
0001E00000
0001E00000
0001E00000
0001E00000
0001E00000
0001E00000
0001E00000
0001E00000
0001E00000
0001E00000
0001E00000
ENDCHAR
STARTCHAR 002C
ENCODING 44
SWIDTH 275 0
DWIDTH 16 0
BBX 10 15 3 -7
BITMAP
1FC0
1FC0
1F80
3F80
3F00
3F00
3E00
3E00
7E00
7C00
7C00
7800
F800
F800
F000
ENDCHAR
STARTCHAR 002D
ENCODING 45
SWIDTH 310 0
DWIDTH 18 0
BBX 14 5 2 12
BITMAP
FFFC
FFFC
FFFC
FFFC
FFFC
ENDCHAR
STARTCHAR 002E
ENCODING 46
SWIDTH 275 0
DWIDTH 16 0
BBX 6 7 6 0
BITMAP
FC
FC
FC
FC
FC
FC
FC
ENDCHAR
STARTCHAR 002F
ENCODING 47
SWIDTH 396 0
DWIDTH 23 0
BBX 17 46 3 -3
BITMAP
000780
000780
000780
000F00
000F00
000F00
001E00
001E00
001E00
001E00
003C00
003C00
003C00
007800
007800
007800
00F000
00F000
00F000
00F000
01E000
01E000
01E000
03C000
03C000
03C000
078000
078000
078000
078000
0F0000
0F0000
0F0000
1E0000
1E0000
1E0000
3E0000
3C0000
3C0000
3C0000
780000
780000
780000
F00000
F00000
F00000
ENDCHAR
STARTCHAR 0030
ENCODING 48
SWIDTH 551 0
DWIDTH 32 0
BBX 26 43 3 0
BITMAP
00FFE000
03FFF000
07FFFC00
0FFFFE00
1FFFFE00
1F807F00
3F003F00
3E001F80
7E001F80
7C000F80
7C000FC0
7C000FC0
FC000FC0
FC0007C0
F80007C0
F80007C0
F80007C0
F80007C0
F80007C0
F80007C0
F80007C0
F80007C0
F80007C0
F80007C0
FC0007C0
FC0007C0
FC0007C0
FC0007C0
FC0007C0
7C000FC0
7C000FC0
7C000FC0
7E000F80
7E001F80
3E001F80
3F003F00
1F807F00
1FE0FE00
0FFFFE00
07FFFC00
03FFF800
01FFE000
003F8000
ENDCHAR
STARTCHAR 0031
ENCODING 49
SWIDTH 551 0
DWIDTH 32 0
BBX 14 42 8 0
BITMAP
00FC
01FC
03FC
07FC
0FFC
3FFC
7FFC
FF7C
FE7C
F87C
E07C
807C
007C
007C
007C
007C
007C
007C
007C
007C
007C
007C
007C
007C
007C
007C
007C
007C
007C
007C
007C
007C
007C
007C
007C
007C
007C
007C
007C
007C
007C
007C
ENDCHAR
STARTCHAR 0032
ENCODING 50
SWIDTH 551 0
DWIDTH 32 0
BBX 25 42 4 1
BITMAP
01FFC000
07FFF000
0FFFF800
1FFFFC00
1FFFFE00
3F807F00
3F003F00
7F001F80
7E001F80
7E001F80
7E000F80
7E000F80
00001F80
00001F80
00001F00
00003F00
00003F00
00007E00
0000FC00
0001FC00
0003F800
0007F000
0007E000
000FE000
001FC000
003F8000
007F0000
00FE0000
01FC0000
03F80000
07F00000
0FE00000
1FE00000
3FC00000
3F800000
7F000000
FE000000
FFFFFF80
FFFFFF80
FFFFFF80
FFFFFF80
FFFFFF80
ENDCHAR
STARTCHAR 0033
ENCODING 51
SWIDTH 551 0
DWIDTH 32 0
BBX 26 43 3 0
BITMAP
01FFC000
07FFF000
0FFFFC00
1FFFFE00
1FFFFF00
3F807F00
3F003F80
7F001F80
7E000F80
7E000F80
FC000F80
00000F80
00000F80
00001F80
00001F80
00003F00
00007E00
0003FC00
007FF800
007FF000
007FE000
007FF000
007FFC00
0003FE00
00007F00
00003F80
00001FC0
00000FC0
000007C0
000007C0
000007C0
FC0007C0
FC0007C0
FC0007C0
FE000FC0
FE001FC0
7F003F80
7FC0FF00
3FFFFF00
1FFFFE00
0FFFF800
03FFF000
00FF8000
ENDCHAR
STARTCHAR 0034
ENCODING 52
SWIDTH 551 0
DWIDTH 32 0
BBX 29 42 2 0
BITMAP
00007F00
00007F00
0000FF00
0001FF00
0003FF00
0003FF00
0007DF00
000FDF00
000F9F00
001F1F00
003F1F00
003E1F00
007C1F00
00FC1F00
00F81F00
01F01F00
03F01F00
03E01F00
07C01F00
0FC01F00
0F801F00
1F001F00
3F001F00
7E001F00
7C001F00
FC001F00
F8001F00
FFFFFFF8
FFFFFFF8
FFFFFFF8
FFFFFFF8
FFFFFFF8
00001F00
00001F00
00001F00
00001F00
00001F00
00001F00
00001F00
00001F00
00001F00
00001F00
ENDCHAR
STARTCHAR 0035
ENCODING 53
SWIDTH 551 0
DWIDTH 32 0
BBX 26 43 3 -1
BITMAP
7FFFFF00
7FFFFF00
7FFFFF00
7FFFFF00
7FFFFF00
7C000000
7C000000
7C000000
7C000000
7C000000
7C000000
7C000000
7C000000
7C000000
7C1FC000
7C7FF000
7CFFFC00
7DFFFC00
7FE0FE00
7F803F00
7F001F00
7E001F80
7E000F80
7C000F80
00000FC0
00000FC0
00000FC0
000007C0
000007C0
00000FC0
00000FC0
00000FC0
FC000F80
FC001F80
FE001F80
7E003F00
7F007F00
7FC0FE00
3FFFFC00
1FFFF800
0FFFF000
03FFE000
007F0000
ENDCHAR
STARTCHAR 0036
ENCODING 54
SWIDTH 551 0
DWIDTH 32 0
BBX 27 43 3 0
BITMAP
007FF000
01FFFC00
03FFFE00
07FFFF00
0FF03F00
1FC01F80
1F800F80
3F000FC0
3F000FC0
7E0007C0
7E000000
7E000000
7C000000
7C000000
7C000000
7C000000
7C0FE000
7C3FF800
7CFFFE00
7CFFFF00
7DFFFF80
7FE07F80
7FC01FC0
FF800FC0
FF0007C0
FF0007E0
FE0007E0
FE0007E0
FE0003E0
FE0003E0
FE0003E0
FE0007E0
FE0007E0
7E0007E0
7F0007C0
3F000FC0
3FC01F80
1FE07F80
0FFFFF00
07FFFE00
03FFFC00
00FFF000
003FC000
ENDCHAR
STARTCHAR 0037
ENCODING 55
SWIDTH 551 0
DWIDTH 32 0
BBX 26 42 3 0
BITMAP
FFFFFFC0
FFFFFFC0
FFFFFFC0
FFFFFFC0
FFFFFFC0
000007C0
00000FC0
00000F80
00001F80
00001F80
00001F00
00003F00
00003F00
00007E00
00007E00
00007C00
0000FC00
0000FC00
0001F800
0001F800
0001F800
0003F000
0003F000
0007E000
0007E000
000FE000
000FC000
000FC000
001F8000
001F8000
003F8000
003F0000
003F0000
007F0000
007E0000
00FE0000
00FC0000
00FC0000
01FC0000
01F80000
03F80000
03F00000
ENDCHAR
STARTCHAR 0038
ENCODING 56
SWIDTH 551 0
DWIDTH 32 0
BBX 27 43 2 0
BITMAP
00FFE000
03FFFC00
0FFFFE00
1FFFFF00
3FFFFF80
3F803FC0
7F001FC0
7E000FC0
7E0007C0
7E0007C0
7C0007C0
7C0007C0
7E0007C0
3E000FC0
3F000F80
1F801F00
0FE07F00
07FFFE00
03FFF800
00FFF000
03FFF800
0FFFFE00
1FE07F00
3F801F80
3E000F80
7E0007C0
7C0007E0
7C0003E0
FC0003E0
F80003E0
F80003E0
FC0003E0
FC0003E0
FC0007E0
FE0007E0
7E000FE0
7F001FC0
3FC07FC0
3FFFFF80
1FFFFF00
07FFFE00
01FFF800
003FC000
ENDCHAR
STARTCHAR 0039
ENCODING 57
SWIDTH 551 0
DWIDTH 32 0
BBX 27 43 3 0
BITMAP
01FFF000
07FFFC00
0FFFFE00
1FFFFF00
3FFFFF80
3F803F80
7E001FC0
7E000FC0
7C000FC0
FC000FE0
FC0007E0
FC0007E0
F80007E0
F80007E0
F80007E0
FC0007E0
FC0007E0
7C000FE0
7C000FE0
7E001FE0
3F003FE0
3FC0FBE0
1FFFF3E0
0FFFF3E0
03FFC3E0
00FF07E0
000007E0
000007E0
000007C0
000007C0
000007C0
00000FC0
7C000FC0
7C000F80
3E001F80
3E003F80
3F007F00
1FC1FE00
1FFFFE00
0FFFFC00
07FFF800
03FFE000
007F8000
ENDCHAR
STARTCHAR 003A
ENCODING 58
SWIDTH 275 0
DWIDTH 16 0
BBX 6 29 6 0
BITMAP
FC
FC
FC
FC
FC
FC
FC
00
00
00
00
00
00
00
00
00
00
00
00
00
00
00
FC
FC
FC
FC
FC
FC
FC
ENDCHAR
STARTCHAR 003B
ENCODING 59
SWIDTH 275 0
DWIDTH 16 0
BBX 10 37 3 -8
BITMAP
1F80
1F80
1F80
1F80
1F80
1F80
1F80
0000
0000
0000
0000
0000
0000
0000
0000
0000
0000
0000
0000
0000
0000
0000
1FC0
1FC0
1F80
1F80
1F00
3F00
3F00
3E00
3E00
7C00
7C00
7C00
7800
F800
F000
ENDCHAR
STARTCHAR 003C
ENCODING 60
SWIDTH 1017 0
DWIDTH 59 0
BBX 35 31 12 2
BITMAP
0000000020
00000000E0
00000007E0
0000003FE0
000000FF80
000007FC00
00001FF000
0000FF8000
0007FC0000
001FF00000
00FF800000
03FC000000
1FF0000000
FF80000000
FC00000000
F000000000
FE00000000
7F80000000
1FF0000000
03FE000000
00FF800000
001FF00000
0003FE0000
0000FF8000
00001FF000
000007FE00
000000FF80
0000001FE0
00000007E0
00000000E0
0000000020
ENDCHAR
STARTCHAR 003D
ENCODING 61
SWIDTH 1017 0
DWIDTH 59 0
BBX 35 14 12 10
BITMAP
FFFFFFFFE0
FFFFFFFFE0
FFFFFFFFE0
FFFFFFFFE0
0000000000
0000000000
0000000000
0000000000
0000000000
0000000000
FFFFFFFFE0
FFFFFFFFE0
FFFFFFFFE0
FFFFFFFFE0
ENDCHAR
STARTCHAR 003E
ENCODING 62
SWIDTH 1017 0
DWIDTH 59 0
BBX 35 31 12 2
BITMAP
8000000000
E000000000
FC00000000
FF80000000
3FE0000000
07FC000000
01FF000000
003FE00000
0007FC0000
0001FF0000
00003FE000
000007F800
000001FF00
0000003FE0
00000007E0
00000001E0
0000000FE0
0000003FC0
000001FF00
00000FF800
00003FE000
0001FF0000
000FF80000
003FE00000
01FF000000
0FFC000000
3FE0000000
FF00000000
FC00000000
E000000000
8000000000
ENDCHAR
STARTCHAR 003F
ENCODING 63
SWIDTH 517 0
DWIDTH 30 0
BBX 25 42 2 1
BITMAP
01FFC000
07FFF000
1FFFF800
3FFFFC00
7FFFFE00
7FCFFF00
FE007F00
F8003F80
70001F80
10001F80
00000F80
00001F80
00001F80
00001F00
00003F00
00003E00
00007C00
0000F800
0001F000
0007E000
000F8000
003F0000
007E0000
00FC0000
00F80000
00F80000
00F80000
00F80000
00F80000
00F80000
00F80000
00F80000
00000000
00000000
00000000
00000000
00F80000
00F80000
00F80000
00F80000
00F80000
00F80000
ENDCHAR
STARTCHAR 0040
ENCODING 64
SWIDTH 982 0
DWIDTH 57 0
BBX 51 52 3 -10
BITMAP
00000FFE000000
0000FFFFF00000
0003FFFFFC0000
000FFFFFFF0000
003FFFFFFFC000
007FF001FFE000
00FF80001FF000
01FE000007F800
03F8000001FC00
07F0000000FE00
0FE00000007F00
0FC00000003F00
1F800000001F80
3F000FE1F01F80
3F003FF9F00F80
3E007FFDF00FC0
7E00FFFFF007C0
7C01F80FF007C0
7C03F007F007E0
FC03F007F007E0
FC07E003F007E0
FC07E003F007E0
FC07C001F007E0
F807C001F003E0
F807C001F003E0
F807C001F003E0
F807C001F007E0
FC07C001F007E0
FC07C001F007E0
FC07C001F007C0
FC07C003F007C0
7C07E003F00FC0
7C03E003F00F80
7E03F007F81F80
7E01F00FF83F00
7E01FC1EFFFE00
3F00FFFE7FFE00
3F007FFC3FFC00
1F803FF01FF000
1F80078007C000
0FC00000000000
0FE00000000000
07F00000000000
03F80000000000
03FE0000000000
01FF8000000000
007FF800700000
003FFFFFF00000
000FFFFFF00000
0003FFFFF00000
0000FFFFF00000
00000FFF800000
ENDCHAR
STARTCHAR 0041
ENCODING 65
SWIDTH 758 0
DWIDTH 44 0
BBX 41 42 1 0
BITMAP
00007F000000
00007F000000
0000FF800000
0000FF800000
0000FFC00000
0001FFC00000
0001FFE00000
0003F7E00000
0003F7E00000
0007E3F00000
0007E3F00000
0007E1F80000
000FC1F80000
000FC1FC0000
001F80FC0000
001F80FC0000
001F807E0000
003F007E0000
003F007F0000
007E003F0000
007E003F8000
00FE001F8000
00FC001F8000
00FC001FC000
01F8000FC000
01F8000FE000
03FFFFFFE000
03FFFFFFF000
07FFFFFFF000
07FFFFFFF000
07FFFFFFF800
0FC00001F800
0FC00000FC00
1F800000FC00
1F800000FC00
1F8000007E00
3F0000007E00
3F0000003F00
7E0000003F00
7E0000003F80
FE0000001F80
FC0000001F80
ENDCHAR
STARTCHAR 0042
ENCODING 66
SWIDTH 672 0
DWIDTH 39 0
BBX 31 42 5 0
BITMAP
FFFFF800
FFFFFF00
FFFFFFC0
FFFFFFE0
FFFFFFF0
F8001FF0
F80003F8
F80001F8
F80000F8
F80000F8
F80000F8
F80000F8
F80000F8
F80001F8
F80001F0
F80003F0
F8001FE0
FFFFFF80
FFFFFF00
FFFFFE00
FFFFFF80
FFFFFFE0
F8001FF0
F80003F8
F80001F8
F80000FC
F800007C
F800007E
F800007E
F800003E
F800007E
F800007E
F800007E
F80000FE
F80001FC
F80003FC
F8001FF8
FFFFFFF0
FFFFFFE0
FFFFFFC0
FFFFFF80
FFFFFC00
ENDCHAR
STARTCHAR 0043
ENCODING 67
SWIDTH 672 0
DWIDTH 39 0
BBX 32 43 3 0
BITMAP
001FFF00
007FFFC0
01FFFFF0
03FFFFF8
07FFFFFC
0FF001FC
0FE0007E
1F80007E
1F80003F
3F00003F
3E00003F
7E00001F
7E000000
7C000000
7C000000
FC000000
FC000000
FC000000
FC000000
F8000000
F8000000
F8000000
F8000000
F8000000
F8000000
FC000000
FC000000
FC000000
7C000000
7C000000
7C000000
7E00001F
3E00001F
3F00001F
1F80003F
1FC0007E
0FE000FE
0FF803FC
07FFFFF8
03FFFFF0
00FFFFE0
003FFF80
0007FC00
ENDCHAR
STARTCHAR 0044
ENCODING 68
SWIDTH 724 0
DWIDTH 42 0
BBX 33 42 5 0
BITMAP
FFFFC00000
FFFFFC0000
FFFFFF0000
FFFFFFC000
FFFFFFE000
F8007FF000
F8000FF800
F80003FC00
F80001FC00
F80000FE00
F800007E00
F800003F00
F800003F00
F800001F80
F800001F80
F800001F80
F800000F80
F800000F80
F800000F80
F800000F80
F800000F80
F800000F80
F800000F80
F800000F80
F800000F80
F800000F80
F800001F80
F800001F80
F800001F00
F800003F00
F800003F00
F800007E00
F80000FE00
F80001FC00
F80003FC00
F8000FF800
F8007FF000
FFFFFFE000
FFFFFFC000
FFFFFF0000
FFFFFC0000
FFFFC00000
ENDCHAR
STARTCHAR 0045
ENCODING 69
SWIDTH 620 0
DWIDTH 36 0
BBX 27 42 5 0
BITMAP
FFFFFFC0
FFFFFFC0
FFFFFFC0
FFFFFFC0
FFFFFFC0
F8000000
F8000000
F8000000
F8000000
F8000000
F8000000
F8000000
F8000000
F8000000
F8000000
F8000000
F8000000
F8000000
FFFFFFC0
FFFFFFC0
FFFFFFC0
FFFFFFC0
FFFFFFC0
F8000000
F8000000
F8000000
F8000000
F8000000
F8000000
F8000000
F8000000
F8000000
F8000000
F8000000
F8000000
F8000000
F8000000
FFFFFFE0
FFFFFFE0
FFFFFFE0
FFFFFFE0
FFFFFFE0
ENDCHAR
STARTCHAR 0046
ENCODING 70
SWIDTH 586 0
DWIDTH 34 0
BBX 25 42 5 0
BITMAP
FFFFFF80
FFFFFF80
FFFFFF80
FFFFFF80
FFFFFF80
F8000000
F8000000
F8000000
F8000000
F8000000
F8000000
F8000000
F8000000
F8000000
F8000000
F8000000
F8000000
F8000000
FFFFFE00
FFFFFE00
FFFFFE00
FFFFFE00
FFFFFE00
F8000000
F8000000
F8000000
F8000000
F8000000
F8000000
F8000000
F8000000
F8000000
F8000000
F8000000
F8000000
F8000000
F8000000
F8000000
F8000000
F8000000
F8000000
F8000000
ENDCHAR
STARTCHAR 0047
ENCODING 71
SWIDTH 741 0
DWIDTH 43 0
BBX 36 43 3 0
BITMAP
0007FFE000
001FFFF800
007FFFFE00
01FFFFFF00
03FFFFFF80
07FC003FC0
0FF0000FE0
0FC00007E0
1F800003F0
3F800003F0
3F000001F0
7E00000000
7E00000000
7C00000000
7C00000000
FC00000000
FC00000000
FC00000000
F800000000
F800000000
F80007FFF0
F80007FFF0
FC0007FFF0
FC0007FFF0
FC0007FFF0
FC000001F0
7C000001F0
7C000001F0
7E000001F0
7E000001F0
7F000001F0
3F000001F0
3F800001F0
1F800001F0
1FC00001F0
0FE00001F0
07F80001F0
07FF003FF0
03FFFFFFF0
00FFFFFFF0
007FFFFFE0
000FFFFF00
0001FFC000
ENDCHAR
STARTCHAR 0048
ENCODING 72
SWIDTH 706 0
DWIDTH 41 0
BBX 31 42 5 0
BITMAP
F800003E
F800003E
F800003E
F800003E
F800003E
F800003E
F800003E
F800003E
F800003E
F800003E
F800003E
F800003E
F800003E
F800003E
F800003E
F800003E
F800003E
F800003E
FFFFFFFE
FFFFFFFE
FFFFFFFE
FFFFFFFE
FFFFFFFE
F800003E
F800003E
F800003E
F800003E
F800003E
F800003E
F800003E
F800003E
F800003E
F800003E
F800003E
F800003E
F800003E
F800003E
F800003E
F800003E
F800003E
F800003E
F800003E
ENDCHAR
STARTCHAR 0049
ENCODING 73
SWIDTH 258 0
DWIDTH 15 0
BBX 5 42 5 0
BITMAP
F8
F8
F8
F8
F8
F8
F8
F8
F8
F8
F8
F8
F8
F8
F8
F8
F8
F8
F8
F8
F8
F8
F8
F8
F8
F8
F8
F8
F8
F8
F8
F8
F8
F8
F8
F8
F8
F8
F8
F8
F8
F8
ENDCHAR
STARTCHAR 004A
ENCODING 74
SWIDTH 551 0
DWIDTH 32 0
BBX 24 43 3 -1
BITMAP
00001F
00001F
00001F
00001F
00001F
00001F
00001F
00001F
00001F
00001F
00001F
00001F
00001F
00001F
00001F
00001F
00001F
00001F
00001F
00001F
00001F
00001F
00001F
00001F
00001F
00001F
00001F
00001F
00001F
00001F
00001F
F8001F
FC001F
FC003F
FC003F
7C007E
7E00FE
3F81FC
3FFFFC
1FFFF8
0FFFF0
03FFC0
00FF00
ENDCHAR
STARTCHAR 004B
ENCODING 75
SWIDTH 655 0
DWIDTH 38 0
BBX 32 42 5 0
BITMAP
F80003F8
F80007F0
F8000FE0
F8001FC0
F8003F80
F8007F00
F800FF00
F801FE00
F803FC00
F807F800
F807F000
F80FE000
F81FC000
F83F8000
F87F0000
F8FE0000
F9FC0000
FBF80000
FFF00000
FFF80000
FBFC0000
F9FE0000
F8FF0000
F87F8000
F87F8000
F83FC000
F81FE000
F80FF000
F807F800
F803FC00
F803FC00
F801FE00
F800FF00
F8007F80
F8003FC0
F8001FE0
F8000FE0
F8000FF0
F80007F8
F80003FC
F80001FE
F80000FF
ENDCHAR
STARTCHAR 004C
ENCODING 76
SWIDTH 534 0
DWIDTH 31 0
BBX 25 42 5 0
BITMAP
F8000000
F8000000
F8000000
F8000000
F8000000
F8000000
F8000000
F8000000
F8000000
F8000000
F8000000
F8000000
F8000000
F8000000
F8000000
F8000000
F8000000
F8000000
F8000000
F8000000
F8000000
F8000000
F8000000
F8000000
F8000000
F8000000
F8000000
F8000000
F8000000
F8000000
F8000000
F8000000
F8000000
F8000000
F8000000
F8000000
F8000000
FFFFFF80
FFFFFF80
FFFFFF80
FFFFFF80
FFFFFF80
ENDCHAR
STARTCHAR 004D
ENCODING 77
SWIDTH 896 0
DWIDTH 52 0
BBX 42 42 5 0
BITMAP
FF8000007FC0
FF8000007FC0
FFC000007FC0
FFC00000FFC0
FFE00000FFC0
FFE00000FFC0
FBE00001FFC0
FBF00001F7C0
FBF00003F7C0
F9F00003F7C0
F9F80003E7C0
F8F80007E7C0
F8F80007C7C0
F8FC0007C7C0
F87C000FC7C0
F87E000F87C0
F87E000F87C0
F83E001F87C0
F83F001F07C0
F81F003F07C0
F81F003E07C0
F81F803E07C0
F80F807E07C0
F80F807C07C0
F80FC07C07C0
F807C0FC07C0
F807E0F807C0
F807E0F807C0
F803E1F807C0
F803F1F007C0
F801F3F007C0
F801F3E007C0
F801FBE007C0
F800FFE007C0
F800FFC007C0
F800FFC007C0
F8007FC007C0
F8007F8007C0
F8003F8007C0
F8003F0007C0
F8003F0007C0
F8001F0007C0
ENDCHAR
STARTCHAR 004E
ENCODING 78
SWIDTH 724 0
DWIDTH 42 0
BBX 32 42 5 0
BITMAP
FF00001F
FF80001F
FF80001F
FFC0001F
FFC0001F
FFE0001F
FFF0001F
FFF0001F
FBF8001F
F9F8001F
F9FC001F
F8FC001F
F8FE001F
F87E001F
F87F001F
F83F801F
F83F801F
F81FC01F
F81FC01F
F80FE01F
F807E01F
F807F01F
F803F01F
F803F81F
F801FC1F
F801FC1F
F800FE1F
F800FE1F
F8007F1F
F8003F1F
F8003F9F
F8001F9F
F8001FDF
F8000FDF
F8000FFF
F80007FF
F80007FF
F80003FF
F80001FF
F80001FF
F80000FF
F80000FF
ENDCHAR
STARTCHAR 004F
ENCODING 79
SWIDTH 758 0
DWIDTH 44 0
BBX 37 43 3 0
BITMAP
000FFFC000
007FFFF000
00FFFFFC00
01FFFFFE00
07FFFFFF00
07F8007F80
0FE0001FC0
1FC0000FC0
1F800007E0
3F000007E0
3E000003F0
7E000003F0
7E000001F0
7C000001F8
7C000001F8
FC000000F8
FC000000F8
FC000000F8
FC000000F8
F8000000F8
F8000000F8
F8000000F8
F8000000F8
FC000000F8
FC000000F8
FC000000F8
7C000001F8
7C000001F8
7C000001F0
7E000001F0
3E000003F0
3F000003F0
3F000007E0
1F800007E0
1FC0000FC0
0FE0001F80
07F0007F80
03FE01FF00
01FFFFFE00
00FFFFFC00
007FFFF000
001FFFC000
0003FE0000
ENDCHAR
STARTCHAR 0050
ENCODING 80
SWIDTH 620 0
DWIDTH 36 0
BBX 28 42 5 0
BITMAP
FFFFC000
FFFFFC00
FFFFFF00
FFFFFF80
FFFFFFC0
F8007FC0
F8000FE0
F80007E0
F80003F0
F80003F0
F80003F0
F80001F0
F80001F0
F80003F0
F80003F0
F80003F0
F80007E0
F8000FE0
F8007FC0
FFFFFFC0
FFFFFF80
FFFFFF00
FFFFFC00
FFFFC000
F8000000
F8000000
F8000000
F8000000
F8000000
F8000000
F8000000
F8000000
F8000000
F8000000
F8000000
F8000000
F8000000
F8000000
F8000000
F8000000
F8000000
F8000000
ENDCHAR
STARTCHAR 0051
ENCODING 81
SWIDTH 775 0
DWIDTH 45 0
BBX 41 43 3 0
BITMAP
000FFF800000
003FFFF00000
00FFFFFC0000
01FFFFFE0000
03FFFFFF0000
07F8007F8000
0FE0001FC000
1FC0000FC000
1F800007E000
3F000007E000
3E000003F000
7E000003F000
7E000001F000
7C000001F800
7C000001F800
FC000000F800
FC000000F800
FC000000F800
FC000000F800
F8000000F800
F8000000F800
F8000000F800
F8000000F800
FC000000F800
FC000000F800
FC000000F800
7C000001F800
7C000001F800
7C000001F000
7E000001F000
3E000003F000
3F000003F000
3F000007E000
1F800007E000
0FC0000FC000
0FE0001F8000
07F0007F8000
03FE01FF3F80
01FFFFFFFF80
00FFFFFFFF80
007FFFFFFF80
001FFFFFFF80
0003FE000000
ENDCHAR
STARTCHAR 0052
ENCODING 82
SWIDTH 620 0
DWIDTH 36 0
BBX 29 42 5 0
BITMAP
FFFFE000
FFFFFC00
FFFFFF00
FFFFFF80
FFFFFFC0
F8007FE0
F8000FE0
F80007F0
F80003F0
F80003F0
F80001F0
F80001F0
F80003F0
F80003F0
F80003E0
F80007E0
F8000FC0
F8007F80
FFFFFF00
FFFFFE00
FFFFF800
FFFFFE00
FFFFFF00
F8007F80
F8001F80
F8001FC0
F8000FC0
F8000FC0
F80007C0
F80007E0
F80007E0
F80007E0
F80003E0
F80003E0
F80003E0
F80003E0
F80003F0
F80001F0
F80001F0
F80001F0
F80001F8
F80001F8
ENDCHAR
STARTCHAR 0053
ENCODING 83
SWIDTH 655 0
DWIDTH 38 0
BBX 31 43 3 0
BITMAP
007FFC00
01FFFF00
03FFFFC0
0FFFFFE0
1FFFFFF0
1FC007F0
3F0003F8
3E0001F8
7E0000F8
7E0000F8
7C0000F8
7C000000
7E000000
7E000000
7F000000
3F800000
3FE00000
1FFC0000
1FFFE000
0FFFFE00
03FFFF80
00FFFFE0
000FFFF0
00007FF8
000007FC
000001FC
000000FE
0000007E
0000003E
0000003E
F800003E
FC00003E
FC00003E
FC00003E
7E00007E
7F0000FC
3F8001FC
3FE00FF8
1FFFFFF0
0FFFFFE0
07FFFFC0
01FFFE00
003FE000
ENDCHAR
STARTCHAR 0054
ENCODING 84
SWIDTH 603 0
DWIDTH 35 0
BBX 33 42 1 0
BITMAP
FFFFFFFF80
FFFFFFFF80
FFFFFFFF80
FFFFFFFF80
FFFFFFFF80
0003E00000
0003E00000
0003E00000
0003E00000
0003E00000
0003E00000
0003E00000
0003E00000
0003E00000
0003E00000
0003E00000
0003E00000
0003E00000
0003E00000
0003E00000
0003E00000
0003E00000
0003E00000
0003E00000
0003E00000
0003E00000
0003E00000
0003E00000
0003E00000
0003E00000
0003E00000
0003E00000
0003E00000
0003E00000
0003E00000
0003E00000
0003E00000
0003E00000
0003E00000
0003E00000
0003E00000
0003E00000
ENDCHAR
STARTCHAR 0055
ENCODING 85
SWIDTH 741 0
DWIDTH 43 0
BBX 33 43 5 -1
BITMAP
F800000F80
F800000F80
F800000F80
F800000F80
F800000F80
F800000F80
F800000F80
F800000F80
F800000F80
F800000F80
F800000F80
F800000F80
F800000F80
F800000F80
F800000F80
F800000F80
F800000F80
F800000F80
F800000F80
F800000F80
F800000F80
F800000F80
F800000F80
F800000F80
F800000F80
F800000F80
FC00000F80
FC00000F80
FC00000F80
FC00001F80
7C00001F80
7C00001F80
7E00001F00
7E00003F00
3F00007F00
3F80007E00
1FC001FE00
1FF007FC00
0FFFFFF800
07FFFFF000
03FFFFE000
00FFFF8000
001FFC0000
ENDCHAR
STARTCHAR 0056
ENCODING 86
SWIDTH 655 0
DWIDTH 38 0
BBX 36 42 1 0
BITMAP
FE000007F0
FE000007F0
7E000007E0
7F00000FE0
7F00000FC0
3F00000FC0
3F80001FC0
1F80001F80
1F80001F80
1FC0003F80
0FC0003F00
0FC0003F00
0FE0007F00
07E0007E00
07E0007E00
07F000FE00
03F000FC00
03F000FC00
03F801FC00
01F801F800
01F801F800
00FC03F000
00FC03F000
00FC03F000
007E07E000
007E07E000
007E07E000
003F0FC000
003F0FC000
003F0FC000
001F9F8000
001F9F8000
001F9F8000
000FFF0000
000FFF0000
000FFE0000
0007FE0000
0007FE0000
0003FC0000
0003FC0000
0003FC0000
0001F80000
ENDCHAR
STARTCHAR 0057
ENCODING 87
SWIDTH 965 0
DWIDTH 56 0
BBX 54 42 1 0
BITMAP
FC0000FE0000FC
FC0001FE0000FC
7E0001FE0000FC
7E0001FF0001FC
7E0001FF0001F8
7F0003FF0001F8
3F0003FF0001F8
3F0003FF8003F0
3F0007EF8003F0
1F8007EF8003F0
1F8007CF8003E0
1F8007CFC007E0
0F800FC7C007E0
0FC00F87C007E0
0FC00F87E00FC0
0FC00F83E00FC0
07C01F83E00FC0
07E01F03E00F80
07E01F03F01F80
03E01F01F01F80
03F03E01F01F00
03F03E01F01F00
03F03E01F83F00
01F07E00F83F00
01F87C00F83E00
01F87C00F83E00
00F87C007C7E00
00F8FC007C7C00
00FCF8007C7C00
007CF8007EFC00
007CF8003EFC00
007DF0003EF800
007FF0003EF800
003FF0001FF800
003FF0001FF000
003FE0001FF000
001FE0001FF000
001FE0000FE000
001FE0000FE000
000FC0000FE000
000FC0000FE000
000FC00007C000
ENDCHAR
STARTCHAR 0058
ENCODING 88
SWIDTH 706 0
DWIDTH 41 0
BBX 37 42 2 0
BITMAP
3F80000FE0
3FC0000FC0
1FC0001FC0
0FE0003F80
0FF0003F00
07F0007F00
03F800FE00
01FC00FC00
01FC01FC00
00FE01F800
007F03F000
007F07E000
003F87E000
001FCFC000
001FDF8000
000FFF8000
0007FF0000
0007FE0000
0003FE0000
0001FC0000
0003FE0000
0003FE0000
0007FF0000
000FFF8000
001F9F8000
001F9FC000
003F0FE000
007F0FE000
007E07F000
00FC03F800
01FC03F800
01F801FC00
03F000FE00
07F000FF00
07E0007F00
0FC0003F80
1FC0003FC0
1F80001FC0
3F80000FE0
7F00000FF0
FE000007F0
FE000003F8
ENDCHAR
STARTCHAR 0059
ENCODING 89
SWIDTH 655 0
DWIDTH 38 0
BBX 36 42 1 0
BITMAP
FE000007F0
FE000007E0
7F00000FC0
3F80001FC0
3F80001F80
1FC0003F80
1FC0003F00
0FE0007E00
07E0007E00
07F000FC00
03F801FC00
01F801F800
01FC03F000
00FC03F000
00FE07E000
007E07C000
003F0FC000
003F8F8000
001F9F8000
001FFF0000
000FFE0000
0007FE0000
0007FC0000
0003FC0000
0001F80000
0001F00000
0001F00000
0001F00000
0001F00000
0001F00000
0001F00000
0001F00000
0001F00000
0001F00000
0001F00000
0001F00000
0001F00000
0001F00000
0001F00000
0001F00000
0001F00000
0001F00000
ENDCHAR
STARTCHAR 005A
ENCODING 90
SWIDTH 637 0
DWIDTH 37 0
BBX 31 42 3 0
BITMAP
7FFFFFFC
7FFFFFFC
7FFFFFFC
7FFFFFFC
7FFFFFFC
000001FC
000003FC
000003F8
000007F0
00000FF0
00001FE0
00001FC0
00003F80
00007F00
0000FF00
0001FE00
0001FC00
0003F800
0007F800
000FF000
000FE000
001FC000
003FC000
007F8000
007F0000
00FE0000
01FC0000
03FC0000
07F80000
07F00000
0FE00000
1FE00000
3FC00000
3F800000
7F000000
FE000000
FE000000
FFFFFFFE
FFFFFFFE
FFFFFFFE
FFFFFFFE
FFFFFFFE
ENDCHAR
STARTCHAR 005B
ENCODING 91
SWIDTH 396 0
DWIDTH 23 0
BBX 11 54 6 -12
BITMAP
FFE0
FFE0
FFE0
F800
F800
F800
F800
F800
F800
F800
F800
F800
F800
F800
F800
F800
F800
F800
F800
F800
F800
F800
F800
F800
F800
F800
F800
F800
F800
F800
F800
F800
F800
F800
F800
F800
F800
F800
F800
F800
F800
F800
F800
F800
F800
F800
F800
F800
F800
F800
F800
FFE0
FFE0
FFE0
ENDCHAR
STARTCHAR 005C
ENCODING 92
SWIDTH 396 0
DWIDTH 23 0
BBX 17 46 3 -3
BITMAP
F00000
F00000
F00000
780000
780000
780000
3C0000
3C0000
3C0000
3C0000
1E0000
1E0000
1E0000
0F0000
0F0000
0F0000
078000
078000
078000
078000
03C000
03C000
03C000
01E000
01E000
01E000
00F000
00F000
00F000
00F000
007800
007800
007800
003C00
003C00
003C00
001E00
001E00
001E00
001E00
000F00
000F00
000F00
000780
000780
000780
ENDCHAR
STARTCHAR 005D
ENCODING 93
SWIDTH 413 0
DWIDTH 24 0
BBX 10 54 7 -12
BITMAP
FFC0
FFC0
FFC0
07C0
07C0
07C0
07C0
07C0
07C0
07C0
07C0
07C0
07C0
07C0
07C0
07C0
07C0
07C0
07C0
07C0
07C0
07C0
07C0
07C0
07C0
07C0
07C0
07C0
07C0
07C0
07C0
07C0
07C0
07C0
07C0
07C0
07C0
07C0
07C0
07C0
07C0
07C0
07C0
07C0
07C0
07C0
07C0
07C0
07C0
07C0
07C0
FFC0
FFC0
FFC0
ENDCHAR
STARTCHAR 005E
ENCODING 94
SWIDTH 1000 0
DWIDTH 58 0
BBX 30 35 14 1
BITMAP
00078000
00078000
000FC000
000FC000
001FE000
001CE000
001CE000
003CF000
00387000
00387000
00787800
00703800
00F03C00
00E01C00
00E01C00
01E01E00
01C00E00
01C00E00
03C00F00
03800700
07800780
07000380
07000380
0F0003C0
0E0001C0
1E0001E0
1E0001E0
1C0000E0
3C0000F0
38000070
38000070
78000078
70000038
F000003C
F000003C
ENDCHAR
STARTCHAR 005F
ENCODING 95
SWIDTH 500 0
DWIDTH 29 0
BBX 29 4 0 -8
BITMAP
FFFFFFF8
FFFFFFF8
FFFFFFF8
FFFFFFF8
ENDCHAR
STARTCHAR 0060
ENCODING 96
SWIDTH 224 0
DWIDTH 13 0
BBX 11 10 -1 35
BITMAP
FC00
7C00
3E00
3E00
1F00
0F80
0780
03C0
03C0
01E0
ENDCHAR
STARTCHAR 0061
ENCODING 97
SWIDTH 551 0
DWIDTH 32 0
BBX 26 31 3 -1
BITMAP
00FFC000
03FFF800
0FFFFE00
1FFFFE00
3FC07F00
3F003F00
3F001F80
3E001F80
3E000F80
00000F80
00000F80
00000F80
003FFF80
01FFFF80
0FFFFF80
1FFFFF80
3FE00F80
7F001F80
7E001F80
FC001F80
FC001F80
F8001F80
F8001F80
FC003F80
FC003F80
7E007F80
7F01FF80
3FFFEF80
1FFFCF80
07FF0FC0
01FC0000
ENDCHAR
STARTCHAR 0062
ENCODING 98
SWIDTH 586 0
DWIDTH 34 0
BBX 27 43 4 -1
BITMAP
F8000000
F8000000
F8000000
F8000000
F8000000
F8000000
F8000000
F8000000
F8000000
F8000000
F8000000
F8000000
F81FC000
F87FF800
F8FFFC00
F9FFFE00
FBC07F00
FF803F80
FF001F80
FE000FC0
FE000FC0
FC0007C0
FC0007E0
FC0007E0
FC0007E0
FC0007E0
F80003E0
F80003E0
F80007E0
FC0007E0
FC0007E0
FC0007C0
FC0007C0
FC0007C0
FE000FC0
FE000F80
FF001F80
FF003F00
FFC07E00
FBFFFC00
F9FFF800
F87FF000
001FC000
ENDCHAR
STARTCHAR 0063
ENCODING 99
SWIDTH 517 0
DWIDTH 30 0
BBX 24 31 3 -1
BITMAP
00FF80
03FFF0
0FFFF8
1FFFFC
3F80FE
3F007F
7E003F
7E001F
7C001F
7C001F
FC0000
FC0000
FC0000
F80000
F80000
F80000
F80000
F80000
FC0000
FC0000
FC001F
7C001F
7C001F
7E003F
3E003F
3F007E
1F80FE
0FFFFC
07FFF8
03FFF0
007F80
ENDCHAR
STARTCHAR 0064
ENCODING 100
SWIDTH 586 0
DWIDTH 34 0
BBX 27 43 3 -1
BITMAP
000003E0
000003E0
000003E0
000003E0
000003E0
000003E0
000003E0
000003E0
000003E0
000003E0
000003E0
000003E0
007F03E0
03FFC3E0
07FFF3E0
0FFFFBE0
1FC0FFE0
1F803FE0
3F001FE0
3E000FE0
7E000FE0
7C0007E0
7C0007E0
FC0007E0
FC0003E0
FC0003E0
F80003E0
F80003E0
F80003E0
FC0003E0
FC0003E0
FC0003E0
7C0007E0
7C0007E0
7E0007E0
3E000FE0
3F001FE0
1F803FE0
0FE07FE0
07FFFFE0
03FFFBE0
00FFE3E0
003F8000
ENDCHAR
STARTCHAR 0065
ENCODING 101
SWIDTH 568 0
DWIDTH 33 0
BBX 27 31 3 -1
BITMAP
003FC000
01FFF000
07FFFC00
0FFFFE00
1FC07F00
1F801F00
3F001F80
3E000F80
7E000FC0
7C0007C0
7C0007C0
FC0007C0
FC0007C0
FFFFFFC0
FFFFFFE0
FFFFFFE0
FFFFFFE0
F8000000
F8000000
FC000000
7C000000
7C0007C0
7C000FC0
3E000FC0
3E001F80
1F001F80
1FC07F00
0FFFFE00
07FFFC00
01FFF000
003FC000
ENDCHAR
STARTCHAR 0066
ENCODING 102
SWIDTH 344 0
DWIDTH 20 0
BBX 19 42 1 1
BITMAP
007FE0
00FFE0
01FFE0
03FC60
03F000
03E000
03E000
03E000
03E000
03E000
03E000
03E000
03E000
FFFFC0
FFFFC0
FFFFC0
FFFFC0
03E000
03E000
03E000
03E000
03E000
03E000
03E000
03E000
03E000
03E000
03E000
03E000
03E000
03E000
03E000
03E000
03E000
03E000
03E000
03E000
03E000
03E000
03E000
03E000
03E000
ENDCHAR
STARTCHAR 0067
ENCODING 103
SWIDTH 603 0
DWIDTH 35 0
BBX 27 42 3 -12
BITMAP
007F8000
01FFF3E0
07FFFBE0
0FFFFFE0
1FC07FE0
3F001FE0
3E000FE0
7E000FE0
7C0007E0
7C0007E0
FC0003E0
FC0003E0
FC0003E0
F80003E0
F80003E0
F80003E0
F80003E0
FC0003E0
FC0003E0
FC0007E0
7C0007E0
7E0007E0
7E000FE0
3F001FE0
3F803FE0
1FE07FE0
0FFFFBE0
07FFF3E0
01FFC3E0
001E03E0
000003E0
000007E0
000007E0
3E0007E0
3E0007C0
3F000FC0
3F801F80
1FC03F00
0FFFFE00
07FFFC00
03FFF800
007FC000
ENDCHAR
STARTCHAR 0068
ENCODING 104
SWIDTH 568 0
DWIDTH 33 0
BBX 25 42 4 0
BITMAP
F8000000
F8000000
F8000000
F8000000
F8000000
F8000000
F8000000
F8000000
F8000000
F8000000
F8000000
F8000000
F81FC000
F8FFF800
F9FFFC00
FBFFFE00
FFC0FF00
FF003F00
FE003F00
FC001F80
FC001F80
F8001F80
F8000F80
F8000F80
F8000F80
F8000F80
F8000F80
F8000F80
F8000F80
F8000F80
F8000F80
F8000F80
F8000F80
F8000F80
F8000F80
F8000F80
F8000F80
F8000F80
F8000F80
F8000F80
F8000F80
F8000F80
ENDCHAR
STARTCHAR 0069
ENCODING 105
SWIDTH 241 0
DWIDTH 14 0
BBX 6 42 4 0
BITMAP
FC
FC
FC
FC
FC
00
00
00
00
00
00
00
00
7C
7C
7C
7C
7C
7C
7C
7C
7C
7C
7C
7C
7C
7C
7C
7C
7C
7C
7C
7C
7C
7C
7C
7C
7C
7C
7C
7C
7C
ENDCHAR
STARTCHAR 006A
ENCODING 106
SWIDTH 293 0
DWIDTH 17 0
BBX 10 54 3 -12
BITMAP
0FC0
0FC0
0FC0
0FC0
0FC0
0000
0000
0000
0000
0000
0000
0000
0000
07C0
07C0
07C0
07C0
07C0
07C0
07C0
07C0
07C0
07C0
07C0
07C0
07C0
07C0
07C0
07C0
07C0
07C0
07C0
07C0
07C0
07C0
07C0
07C0
07C0
07C0
07C0
07C0
07C0
07C0
07C0
07C0
07C0
07C0
0FC0
0FC0
0FC0
FF80
FF80
FF00
FC00
ENDCHAR
STARTCHAR 006B
ENCODING 107
SWIDTH 500 0
DWIDTH 29 0
BBX 24 42 4 0
BITMAP
F80000
F80000
F80000
F80000
F80000
F80000
F80000
F80000
F80000
F80000
F80000
F80000
F80000
F800FE
F801FC
F803F8
F807F0
F80FE0
F81FC0
F83F80
F83F00
F87E00
F8FC00
F9F800
FBF000
FFF000
FFF000
FBF800
F9FC00
F8FC00
F8FE00
F87F00
F83F80
F81F80
F81FC0
F80FE0
F807F0
F803F0
F803F8
F801FC
F800FE
F8007F
ENDCHAR
STARTCHAR 006C
ENCODING 108
SWIDTH 224 0
DWIDTH 13 0
BBX 5 42 4 0
BITMAP
F8
F8
F8
F8
F8
F8
F8
F8
F8
F8
F8
F8
F8
F8
F8
F8
F8
F8
F8
F8
F8
F8
F8
F8
F8
F8
F8
F8
F8
F8
F8
F8
F8
F8
F8
F8
F8
F8
F8
F8
F8
F8
ENDCHAR
STARTCHAR 006D
ENCODING 109
SWIDTH 896 0
DWIDTH 52 0
BBX 44 30 4 0
BITMAP
001FC003F800
F87FF80FFF00
F8FFFC3FFF80
FBFFFE7FFFC0
FBC0FF780FE0
FF007FF007E0
FE003FE003E0
FE001FC003F0
FC001FC003F0
FC001F8003F0
F8000F8001F0
F8000F8001F0
F8000F8001F0
F8000F8001F0
F8000F8001F0
F8000F8001F0
F8000F8001F0
F8000F8001F0
F8000F8001F0
F8000F8001F0
F8000F8001F0
F8000F8001F0
F8000F8001F0
F8000F8001F0
F8000F8001F0
F8000F8001F0
F8000F8001F0
F8000F8001F0
F8000F8001F0
F8000F8001F0
ENDCHAR
STARTCHAR 006E
ENCODING 110
SWIDTH 568 0
DWIDTH 33 0
BBX 25 30 4 0
BITMAP
001FC000
F8FFF800
F9FFFC00
FBFFFE00
FBC0FF00
FF003F80
FE003F80
FC001F80
FC000F80
FC000F80
F8000F80
F8000F80
F8000F80
F8000F80
F8000F80
F8000F80
F8000F80
F8000F80
F8000F80
F8000F80
F8000F80
F8000F80
F8000F80
F8000F80
F8000F80
F8000F80
F8000F80
F8000F80
F8000F80
F8000F80
ENDCHAR
STARTCHAR 006F
ENCODING 111
SWIDTH 586 0
DWIDTH 34 0
BBX 28 31 3 -1
BITMAP
003FC000
01FFF800
03FFFE00
07FFFF00
0FE03F80
1F801FC0
3F000FC0
3F0007E0
7E0007E0
7E0003F0
7C0003F0
FC0001F0
FC0001F0
FC0001F0
F80001F0
F80001F0
F80001F0
FC0001F0
FC0001F0
FC0001F0
7C0003F0
7E0003F0
7E0007E0
3F0007E0
3F000FC0
1F801FC0
1FE03F80
0FFFFF00
03FFFE00
01FFF800
003FC000
ENDCHAR
STARTCHAR 0070
ENCODING 112
SWIDTH 586 0
DWIDTH 34 0
BBX 27 42 4 -12
BITMAP
001FE000
F87FF800
F8FFFE00
FBFFFF00
FFC07F00
FF801F80
FF001FC0
FE000FC0
FE0007C0
FC0007E0
FC0007E0
FC0003E0
FC0003E0
FC0003E0
F80003E0
F80003E0
F80003E0
FC0003E0
FC0003E0
FC0003E0
FC0007E0
FC0007E0
FE0007C0
FE000FC0
FF000FC0
FF801F80
FFC07F00
FBFFFF00
F9FFFE00
F87FF800
F81FE000
F8000000
F8000000
F8000000
F8000000
F8000000
F8000000
F8000000
F8000000
F8000000
F8000000
F8000000
ENDCHAR
STARTCHAR 0071
ENCODING 113
SWIDTH 603 0
DWIDTH 35 0
BBX 28 42 3 -12
BITMAP
007F8000
03FFE1F0
07FFF1F0
0FFFF9F0
1FC03FF0
3F801FF0
3F000FF0
7E0007F0
7E0007F0
7C0003F0
FC0003F0
FC0003F0
FC0003F0
FC0003F0
F80001F0
F80001F0
F80001F0
FC0003F0
FC0003F0
FC0003F0
FC0003F0
7C0003F0
7E0007F0
7E0007F0
3F000FF0
3F801FF0
1FC03FF0
0FFFFDF0
07FFF9F0
03FFE1F0
007F81F0
000001F0
000001F0
000001F0
000001F0
000001F0
000001F0
000001F0
000001F0
000001F0
000001F0
000001F0
ENDCHAR
STARTCHAR 0072
ENCODING 114
SWIDTH 362 0
DWIDTH 21 0
BBX 16 29 4 0
BITMAP
F83F
F8FF
F9FF
FBFF
FFFF
FFE0
FF80
FE00
FE00
FC00
FC00
FC00
F800
F800
F800
F800
F800
F800
F800
F800
F800
F800
F800
F800
F800
F800
F800
F800
F800
ENDCHAR
STARTCHAR 0073
ENCODING 115
SWIDTH 500 0
DWIDTH 29 0
BBX 23 31 3 -1
BITMAP
01FF00
0FFFE0
1FFFF0
3FFFF8
7F01FC
7E00FC
7C007C
7C007C
7C007C
7C0000
7E0000
7F0000
7FE000
3FFF00
1FFFE0
0FFFF8
01FFFC
000FFC
0001FE
00007E
00003E
00003E
F8003E
FC003E
FC007E
7E007E
7F01FC
3FFFF8
1FFFF0
0FFFC0
01FE00
ENDCHAR
STARTCHAR 0074
ENCODING 116
SWIDTH 362 0
DWIDTH 21 0
BBX 17 38 2 -1
BITMAP
004000
01C000
07C000
07C000
07C000
07C000
07C000
07C000
FFFF80
FFFF80
FFFF80
FFFF80
07C000
07C000
07C000
07C000
07C000
07C000
07C000
07C000
07C000
07C000
07C000
07C000
07C000
07C000
07C000
07C000
07C000
07C000
07C000
07E000
07E000
07E000
03FF80
03FF80
01FF80
007F00
ENDCHAR
STARTCHAR 0075
ENCODING 117
SWIDTH 568 0
DWIDTH 33 0
BBX 25 30 4 -1
BITMAP
F8000F80
F8000F80
F8000F80
F8000F80
F8000F80
F8000F80
F8000F80
F8000F80
F8000F80
F8000F80
F8000F80
F8000F80
F8000F80
F8000F80
F8000F80
F8000F80
F8000F80
F8000F80
F8000F80
F8000F80
FC001F80
FC001F80
FC001F80
7E003F80
7F007F80
7F80EF80
3FFFEF80
1FFFCF80
0FFF8F80
01FC0000
ENDCHAR
STARTCHAR 0076
ENCODING 118
SWIDTH 534 0
DWIDTH 31 0
BBX 29 29 1 0
BITMAP
FC0001F8
FE0001F8
7E0001F0
7E0003F0
3F0003E0
3F0007E0
1F8007C0
1F8007C0
1F800FC0
0FC00F80
0FC00F80
07E01F00
07E01F00
07E03F00
03F03E00
03F03E00
01F07C00
01F87C00
00F8FC00
00FCF800
00FCF800
007DF000
007FF000
003FF000
003FE000
003FE000
001FC000
001FC000
000F8000
ENDCHAR
STARTCHAR 0077
ENCODING 119
SWIDTH 810 0
DWIDTH 47 0
BBX 45 29 1 0
BITMAP
FC001FC000F8
FC001FE001F8
7C003FE001F0
7E003FE001F0
7E003FE003F0
3E007DF003E0
3E007DF003E0
3F007DF007E0
1F0078F807C0
1F00F8F807C0
1F80F8F807C0
0F80F87C0F80
0F81F07C0F80
0FC1F07C0F80
07C1F03C1F00
07C3E03E1F00
07C3E03E1F00
03E3E01E3E00
03E7C01F3E00
03E7C01F3E00
01F7C00F3C00
01F7800FFC00
01FF800FFC00
00FF8007F800
00FF0007F800
00FF0007F800
007F0003F000
007E0003F000
007E0003F000
ENDCHAR
STARTCHAR 0078
ENCODING 120
SWIDTH 551 0
DWIDTH 32 0
BBX 28 29 2 0
BITMAP
FE0007E0
7F0007E0
3F800FC0
1F801F80
1FC03F00
0FE03F00
07E07E00
03F0FC00
01F8F800
01FDF000
00FFF000
007FE000
003FC000
003F8000
003F8000
003FC000
007FE000
00FFF000
01FBF800
03F1F800
03E0FC00
07E0FE00
0FC07F00
1F803F00
1F801F80
3F001FC0
7E000FE0
FC0007E0
FC0003F0
ENDCHAR
STARTCHAR 0079
ENCODING 121
SWIDTH 534 0
DWIDTH 31 0
BBX 29 41 1 -12
BITMAP
FC0001F8
FE0001F8
7E0001F0
7E0003F0
3F0003E0
3F0007E0
1F8007E0
1F8007C0
1F800FC0
0FC00FC0
0FC00F80
07E01F80
07E01F00
03F03F00
03F03F00
03F03E00
01F87E00
01F87C00
00FCFC00
00FCFC00
007CF800
007FF800
007FF000
003FF000
003FF000
001FE000
001FE000
001FE000
000FC000
000FC000
000F8000
001F8000
001F8000
001F0000
003F0000
003E0000
003E0000
007E0000
007C0000
007C0000
00FC0000
ENDCHAR
STARTCHAR 007A
ENCODING 122
SWIDTH 465 0
DWIDTH 27 0
BBX 21 29 3 0
BITMAP
7FFFF8
7FFFF8
7FFFF8
7FFFF8
0001F8
0003F0
0007F0
000FE0
000FC0
001F80
003F80
007F00
007E00
00FC00
01FC00
01F800
03F000
07E000
0FE000
0FC000
1F8000
3F0000
7F0000
7E0000
FC0000
FFFFF8
FFFFF8
FFFFF8
FFFFF8
ENDCHAR
STARTCHAR 007B
ENCODING 123
SWIDTH 500 0
DWIDTH 29 0
BBX 19 58 5 -14
BITMAP
0003E0
001FE0
003FE0
007FE0
00FF00
00FC00
01F800
01F800
01F000
01F000
01F000
01F000
01F000
01F000
01F000
01F000
01F000
01F000
01F000
01F000
01F000
03F000
03E000
07E000
07E000
1FC000
7FC000
FF8000
FF0000
FF0000
FF8000
7F8000
1FC000
07E000
07E000
03E000
03F000
01F000
01F000
01F000
01F000
01F000
01F000
01F000
01F000
01F000
01F000
01F000
01F000
01F000
00F800
00F800
00FC00
00FF00
007FE0
003FE0
001FE0
0003E0
ENDCHAR
STARTCHAR 007C
ENCODING 124
SWIDTH 344 0
DWIDTH 20 0
BBX 3 62 9 -15
BITMAP
E0
E0
E0
E0
E0
E0
E0
E0
E0
E0
E0
E0
E0
E0
E0
E0
E0
E0
E0
E0
E0
E0
E0
E0
E0
E0
E0
E0
E0
E0
E0
E0
E0
E0
E0
E0
E0
E0
E0
E0
E0
E0
E0
E0
E0
E0
E0
E0
E0
E0
E0
E0
E0
E0
E0
E0
E0
E0
E0
E0
E0
E0
ENDCHAR
STARTCHAR 007D
ENCODING 125
SWIDTH 500 0
DWIDTH 29 0
BBX 19 58 5 -14
BITMAP
F80000
FF0000
FF8000
FFC000
1FC000
07E000
03E000
03E000
01F000
01F000
01F000
01F000
01F000
01F000
01F000
01F000
01F000
01F000
01F000
01F000
01F000
01F800
00F800
00FC00
00FC00
007F00
003FC0
003FE0
001FE0
001FE0
003FE0
007FC0
007F00
00FC00
00FC00
01F800
01F800
01F000
01F000
01F000
01F000
01F000
01F000
01F000
01F000
01F000
01F000
01F000
01F000
01F000
03E000
03E000
07E000
1FC000
FFC000
FF8000
FF0000
F80000
ENDCHAR
STARTCHAR 007E
ENCODING 126
SWIDTH 534 0
DWIDTH 31 0
BBX 31 7 0 12
BITMAP
03F8007E
0FFF00FC
1FFFE1FC
3FFFFFF8
7F0FFFF0
7C01FFE0
FC003F80
ENDCHAR
STARTCHAR 00A0
ENCODING 160
SWIDTH 293 0
DWIDTH 17 0
BBX 0 0 0 0
BITMAP
ENDCHAR
STARTCHAR 00A1
ENCODING 161
SWIDTH 362 0
DWIDTH 21 0
BBX 5 41 8 -12
BITMAP
F8
F8
F8
F8
F8
F8
00
00
00
00
F8
F8
F8
F8
F8
F8
F8
F8
F8
F8
F8
F8
F8
F8
F8
F8
F8
F8
F8
F8
F8
F8
F8
F8
F8
F8
F8
F8
F8
F8
F8
ENDCHAR
STARTCHAR 00A2
ENCODING 162
SWIDTH 551 0
DWIDTH 32 0
BBX 24 44 4 -7
BITMAP
000078
000070
000070
0000F0
0000E0
0000E0
00FFE0
03FFF0
0FFFF8
1FFFFC
3F83FE
3F03BE
7E039F
7E071F
7C071F
FC071F
FC0E00
FC0E00
FC0E00
F81E00
F81C00
F81C00
F81C00
F83800
FC3800
FC3800
FC701F
FC701F
7C701F
7EE03F
7EE03F
3FE07E
3FE0FE
1FFFFC
0FFFF8
03FFE0
03FF80
038000
070000
070000
070000
0F0000
0E0000
0E0000
ENDCHAR
STARTCHAR 00A3
ENCODING 163
SWIDTH 568 0
DWIDTH 33 0
BBX 29 43 3 0
BITMAP
00008000
001FFC00
00FFFF00
01FFFFC0
03FC1FE0
07F007F0
07E003F0
0FC001F8
0FC001F8
0F800000
0F800000
0F800000
0F800000
0F800000
0F800000
0F800000
FFFFE000
FFFFE000
FFFFE000
FFFFE000
0F800000
0F800000
0F800000
0F800000
0F800000
0F800000
0F800000
0F800000
0F800000
0F800000
0F800000
0F800000
0F800000
0F800000
0F800000
0F800000
0F800000
0F800000
0F800000
FFFFFFF0
FFFFFFF0
FFFFFFF0
FFFFFFF0
ENDCHAR
STARTCHAR 00A4
ENCODING 164
SWIDTH 620 0
DWIDTH 36 0
BBX 30 31 3 11
BITMAP
60000018
F000003C
F000003C
780FC078
3C7FF8F0
1EFFFDE0
0FFFFFC0
07E01F80
07C00F80
0F0003C0
0F0003C0
0E0001C0
1E0001E0
1C0000E0
1C0000E0
1C0000E0
1C0000E0
1C0000E0
1C0001E0
0E0001C0
0F0003C0
0F0003C0
07C00F80
07E01F80
0FFFFFC0
1EFFFDE0
3C7FF8F0
780FC078
F000003C
E000001C
40000008
ENDCHAR
STARTCHAR 00A5
ENCODING 165
SWIDTH 568 0
DWIDTH 33 0
BBX 31 42 1 0
BITMAP
FC00007E
FC00007E
7E0000FC
7E0000FC
3F0001F8
3F0001F8
1F8003F0
1F8003F0
0FC007E0
0FC007E0
07E00FC0
07E00FC0
03F01F80
FFF01FFE
FFF03FFE
FFF83FFE
00F87E00
00FC7E00
007CFC00
007EF800
003FF800
003FF000
FFFFFFFE
FFFFFFFE
FFFFFFFE
0007C000
0007C000
0007C000
0007C000
0007C000
0007C000
0007C000
0007C000
0007C000
0007C000
0007C000
0007C000
0007C000
0007C000
0007C000
0007C000
0007C000
ENDCHAR
STARTCHAR 00A6
ENCODING 166
SWIDTH 344 0
DWIDTH 20 0
BBX 3 54 9 -12
BITMAP
E0
E0
E0
E0
E0
E0
E0
E0
E0
E0
E0
E0
E0
E0
E0
E0
E0
E0
E0
E0
E0
E0
E0
00
00
00
00
00
00
00
00
E0
E0
E0
E0
E0
E0
E0
E0
E0
E0
E0
E0
E0
E0
E0
E0
E0
E0
E0
E0
E0
E0
E0
ENDCHAR
STARTCHAR 00A7
ENCODING 167
SWIDTH 465 0
DWIDTH 27 0
BBX 21 53 3 -10
BITMAP
01FFC0
07FFE0
0FFFE0
1FC3E0
3F0060
3E0000
7E0000
7E0000
7C0000
7E0000
7E0000
7F0000
3F8000
1FC000
1FF000
0FFC00
03FF00
01FF80
07FFC0
1FFFE0
3F8FF0
7F03F8
7E01F8
7C00F8
F800F8
F800F8
F800F8
F801F8
FC03F0
FE07F0
7F9FE0
7FFF80
3FFF00
0FFE00
07FF00
01FFC0
007FE0
001FF0
0007F0
0003F8
0001F8
0000F8
0000F8
0000F8
0000F8
0001F8
0003F0
4007F0
781FE0
7FFFC0
7FFF80
3FFE00
00F000
ENDCHAR
STARTCHAR 00A8
ENCODING 168
SWIDTH 293 0
DWIDTH 17 0
BBX 17 5 0 37
BITMAP
F80F80
F80F80
F80F80
F80F80
F80F80
ENDCHAR
STARTCHAR 00A9
ENCODING 169
SWIDTH 844 0
DWIDTH 49 0
BBX 43 44 3 -1
BITMAP
000004000000
0001FFF00000
000FFFFE0000
003FFBFF0000
007E000FC000
00F80003E000
01E00000F000
03C000007800
07807FC03C00
0F01FFF81E00
1E07FFFC0F00
1C0FFFFE0700
3C1FC07F0780
381F801F0380
783F001F83C0
703E000F81C0
703E000F81C0
F07E000000C0
E07C000000E0
E07C000000E0
E07C000000E0
E07C000000E0
E07C000000E0
E07C000000E0
E07C000000E0
E07C000000E0
E07C000F80E0
703E000F81C0
703E000F81C0
703F001F01C0
381F803F0380
381FC07F0380
3C0FFFFE0780
1E07FFFC0F00
0E01FFF00E00
0F003FC01E00
078000003C00
03E00000F800
01F00001F000
00FC0007E000
003F803F8000
001FFFFF0000
0007FFFC0000
00007FC00000
ENDCHAR
STARTCHAR 00AA
ENCODING 170
SWIDTH 379 0
DWIDTH 22 0
BBX 20 28 1 14
BITMAP
01FC00
07FF80
1FFFC0
1F07C0
3E03E0
3C01E0
3C01E0
0001E0
0001E0
00FFE0
07FFE0
1FFFE0
3F01E0
3C01E0
7801E0
7801E0
7803E0
7803E0
7E0FE0
3FFDE0
1FF8E0
03F000
000000
000000
000000
000000
FFFFF0
FFFFF0
ENDCHAR
STARTCHAR 00AB
ENCODING 171
SWIDTH 551 0
DWIDTH 32 0
BBX 24 23 4 3
BITMAP
00F01F
01F01E
03E03E
03E07C
07C0F8
0F80F8
0F81F0
1F03F0
3F03E0
3E07C0
7C0FC0
FC0F80
7C0FC0
3E07C0
3F03E0
1F03F0
0F81F0
0F80F8
07C0F8
03E07C
01E03E
01F01E
00F01F
ENDCHAR
STARTCHAR 00AC
ENCODING 172
SWIDTH 620 0
DWIDTH 36 0
BBX 32 14 2 11
BITMAP
FFFFFFFF
FFFFFFFF
FFFFFFFF
FFFFFFFF
0000000F
0000000F
0000000F
0000000F
0000000F
0000000F
0000000F
0000000F
0000000F
0000000F
ENDCHAR
STARTCHAR 00AE
ENCODING 174
SWIDTH 844 0
DWIDTH 49 0
BBX 43 44 3 -1
BITMAP
000004000000
0001FFF00000
000FFFFE0000
003FFBFF0000
007E000FC000
00F80003E000
01E00000F000
03C000007800
0787FFF03C00
0F07FFFC1E00
1E07FFFE0F00
1C07FFFF0700
3C07800F8780
380780078380
7807800783C0
7007800781C0
7007800781C0
F007800F80C0
E007801F00E0
E007FFFE00E0
E007FFFC00E0
E007FFF800E0
E007FFFE00E0
E007803E00E0
E007801E00E0
E007800F00E0
E007800F00E0
7007800F01C0
7007800F01C0
7007800701C0
380780070380
380780078380
3C0780078780
1E0780078F00
0E0780078E00
0F0000001E00
078000003C00
03E00000F800
01F00001F000
00FC0007E000
003F803F8000
001FFFFF0000
0007FFFC0000
00007FC00000
ENDCHAR
STARTCHAR 00AF
ENCODING 175
SWIDTH 293 0
DWIDTH 17 0
BBX 17 4 0 37
BITMAP
FFFF80
FFFF80
FFFF80
FFFF80
ENDCHAR
STARTCHAR 00B0
ENCODING 176
SWIDTH 327 0
DWIDTH 19 0
BBX 13 12 3 30
BITMAP
0F80
3FE0
78F0
6030
E038
C018
C018
C018
6030
7070
3FE0
1FC0
ENDCHAR
STARTCHAR 00B1
ENCODING 177
SWIDTH 1017 0
DWIDTH 59 0
BBX 35 35 12 0
BITMAP
0001E00000
0001E00000
0001E00000
0001E00000
0001E00000
0001E00000
0001E00000
0001E00000
0001E00000
0001E00000
FFFFFFFFE0
FFFFFFFFE0
FFFFFFFFE0
FFFFFFFFE0
0001E00000
0001E00000
0001E00000
0001E00000
0001E00000
0001E00000
0001E00000
0001E00000
0001E00000
0001E00000
0001E00000
0000000000
0000000000
0000000000
0000000000
0000000000
0000000000
FFFFFFFFE0
FFFFFFFFE0
FFFFFFFFE0
FFFFFFFFE0
ENDCHAR
STARTCHAR 00B2
ENCODING 178
SWIDTH 362 0
DWIDTH 21 0
BBX 17 23 2 21
BITMAP
07F000
1FFC00
3FFE00
3FFF00
7C0F80
780780
780780
000780
000780
000F00
001F00
003E00
007C00
01F800
03F000
07C000
1F8000
3F0000
7E0000
FFFF80
FFFF80
FFFF80
FFFF80
ENDCHAR
STARTCHAR 00B3
ENCODING 179
SWIDTH 362 0
DWIDTH 21 0
BBX 17 23 2 20
BITMAP
0FF800
3FFC00
7FFE00
7C3F00
F80F00
F00F00
000F00
000F00
001E00
03FC00
03F800
03FC00
03FE00
001F00
000F80
000780
E00780
F00780
F81F80
FFFF00
7FFE00
3FFC00
07E000
ENDCHAR
STARTCHAR 00B4
ENCODING 180
SWIDTH 224 0
DWIDTH 13 0
BBX 11 10 3 35
BITMAP
03E0
07E0
0FC0
0F80
1F00
1E00
3E00
3C00
7800
F000
ENDCHAR
STARTCHAR 00B6
ENCODING 182
SWIDTH 551 0
DWIDTH 32 0
BBX 26 52 3 -10
BITMAP
00FFFFC0
03FFFFC0
0FFC1C00
1FFC1C00
3FFC1C00
7FFC1C00
7FFC1C00
FFFC1C00
FFFC1C00
FFFC1C00
FFFC1C00
FFFC1C00
FFFC1C00
FFFC1C00
FFFC1C00
FFFC1C00
7FFC1C00
7FFC1C00
3FFC1C00
0FFC1C00
03FC1C00
003C1C00
001C1C00
001C1C00
001C1C00
001C1C00
001C1C00
001C1C00
001C1C00
001C1C00
001C1C00
001C1C00
001C1C00
001C1C00
001C1C00
001C1C00
001C1C00
001C1C00
001C1C00
001C1C00
001C1C00
001C1C00
001C1C00
001C1C00
001C1C00
001C1C00
001C1C00
001C1C00
001C1C00
001C1C00
001C1C00
001C1C00
ENDCHAR
STARTCHAR 00B7
ENCODING 183
SWIDTH 275 0
DWIDTH 16 0
BBX 6 7 5 16
BITMAP
FC
FC
FC
FC
FC
FC
FC
ENDCHAR
STARTCHAR 00B8
ENCODING 184
SWIDTH 258 0
DWIDTH 15 0
BBX 14 14 3 -14
BITMAP
1800
1800
1800
1F80
1FF0
1FF8
01F8
007C
003C
003C
007C
FFF8
FFF0
FF80
ENDCHAR
STARTCHAR 00B9
ENCODING 185
SWIDTH 293 0
DWIDTH 17 0
BBX 9 22 4 21
BITMAP
0F80
1F80
3F80
FF80
F780
C780
0780
0780
0780
0780
0780
0780
0780
0780
0780
0780
0780
0780
0780
0780
0780
0780
ENDCHAR
STARTCHAR 00BA
ENCODING 186
SWIDTH 413 0
DWIDTH 24 0
BBX 20 28 2 14
BITMAP
01F800
07FE00
1FFF80
3F0FC0
3C03C0
7803E0
7801E0
F801F0
F000F0
F000F0
F000F0
F000F0
F000F0
F000F0
F001F0
7801E0
7801E0
7C03C0
3E07C0
1FFF80
0FFF00
01F800
000000
000000
000000
000000
FFFFF0
FFFFF0
ENDCHAR
STARTCHAR 00BB
ENCODING 187
SWIDTH 551 0
DWIDTH 32 0
BBX 23 23 5 3
BITMAP
F01E00
F81F00
7C0F80
7C07C0
3E07C0
1F03E0
1F03F0
0F81F0
0FC0F8
07C0FC
03E07C
03F07E
03E07C
07C0FC
0FC0F8
0F81F0
1F03F0
1F03E0
3E07C0
7C07C0
7C0F80
F81F00
F01E00
ENDCHAR
STARTCHAR 00BC
ENCODING 188
SWIDTH 793 0
DWIDTH 46 0
BBX 39 44 4 -1
BITMAP
0F80001F00
1F80001E00
3F80003E00
FF80003C00
F780007800
C780007800
078000F000
078001F000
078001E000
078003E000
078003C000
0780078000
0780078000
07800F0000
07800F0000
07801E0000
07803E0000
07803C0000
0780780000
0780780000
0780F003E0
0780F007E0
0001E007E0
0003E00FE0
0003C01FE0
0007C03DE0
00078039E0
000F0079E0
000F00F1E0
001E01E1E0
001E01C1E0
003C03C1E0
007C0781E0
00780F01E0
00F00FFFFE
00F00FFFFE
01E00FFFFE
01E00FFFFE
03C00001E0
03C00001E0
07800001E0
0F800001E0
0F000001E0
1E00000000
ENDCHAR
STARTCHAR 00BD
ENCODING 189
SWIDTH 810 0
DWIDTH 47 0
BBX 40 44 4 -1
BITMAP
0780000F00
1F80001E00
3F80001E00
FF80003C00
F780007800
E780007800
078000F000
078000F000
078001E000
078001E000
078003C000
0780078000
0780078000
07800F0000
07800F0000
07801E0000
07801E0000
07803C0000
07803C0000
0780780000
0780F00FE0
0780F03FF8
0001E07FFC
0001E0FFFC
0003C0F83E
0003C0F01E
000780F01E
000F00001E
000F00001E
001E00003C
001E00007C
003C0000F8
003C0001F0
00780003E0
00F80007C0
00F0001F80
01E0003E00
01E0007C00
03C000F800
03C001FFFF
078001FFFF
0F8001FFFF
0F0001FFFF
1E00000000
ENDCHAR
STARTCHAR 00BE
ENCODING 190
SWIDTH 793 0
DWIDTH 46 0
BBX 42 44 2 -1
BITMAP
00000001E000
1FF80001E000
3FFE0003C000
7FFE0003C000
7C7F00078000
F00F000F8000
F00F000F0000
000F001E0000
001E001E0000
03FC003C0000
03F8003C0000
03FC00780000
03FE00780000
001F00F00000
000F81F00000
000781E00000
E00783C00000
F00783C00000
F81F87800000
FFFF07800000
7FFE0F00F800
3FFC0F00F800
07E01E01F800
00003E03F800
00003C03F800
000078077800
0000780F7800
0000F00E7800
0000F01C7800
0001E0387800
0001E0787800
0003C0707800
000780E07800
000781E07800
000F01FFFFC0
000F01FFFFC0
001E01FFFFC0
001E01FFFFC0
003C00007800
003C00007800
007800007800
00F000007800
00F000007800
01E000000000
ENDCHAR
STARTCHAR 00BF
ENCODING 191
SWIDTH 517 0
DWIDTH 30 0
BBX 25 41 3 -12
BITMAP
000F8000
000F8000
000F8000
000F8000
000F8000
000F8000
00000000
00000000
00000000
00000000
000F0000
000F0000
000F0000
000F0000
000F0000
001F0000
001F0000
003F0000
007E0000
00FC0000
01F80000
07F00000
0FE00000
1FC00000
3F000000
3E000000
7E000000
7C000000
FC000000
F8000000
F8000000
FC000600
FC000F80
FE001F80
7F807F80
7FFFFF00
3FFFFE00
1FFFFC00
0FFFF800
03FFF000
007F8000
ENDCHAR
STARTCHAR 00C0
ENCODING 192
SWIDTH 758 0
DWIDTH 44 0
BBX 41 58 1 0
BITMAP
000FC0000000
0007C0000000
0003E0000000
0003E0000000
0001F0000000
0000F8000000
000078000000
00003C000000
00003C000000
00001E000000
000000000000
000000000000
000000000000
000000000000
000000000000
000000000000
00007F000000
00007F000000
0000FF800000
0000FF800000
0000FFC00000
0001FFC00000
0001FFE00000
0003F7E00000
0003F7E00000
0007E3F00000
0007E3F00000
0007E1F80000
000FC1F80000
000FC1FC0000
001F80FC0000
001F80FC0000
001F807E0000
003F007E0000
003F007F0000
007E003F0000
007E003F8000
00FE001F8000
00FC001F8000
00FC001FC000
01F8000FC000
01F8000FE000
03FFFFFFE000
03FFFFFFF000
07FFFFFFF000
07FFFFFFF000
07FFFFFFF800
0FC00001F800
0FC00000FC00
1F800000FC00
1F800000FC00
1F8000007E00
3F0000007E00
3F0000003F00
7E0000003F00
7E0000003F80
FE0000001F80
FC0000001F80
ENDCHAR
STARTCHAR 00C1
ENCODING 193
SWIDTH 758 0
DWIDTH 44 0
BBX 41 58 1 0
BITMAP
000000FC0000
000001F80000
000001F00000
000003E00000
000003C00000
000007C00000
00000F800000
00000F000000
00001E000000
00001C000000
000000000000
000000000000
000000000000
000000000000
000000000000
000000000000
00007F000000
00007F000000
0000FF800000
0000FF800000
0000FFC00000
0001FFC00000
0001FFE00000
0003F7E00000
0003F7E00000
0007E3F00000
0007E3F00000
0007E1F80000
000FC1F80000
000FC1FC0000
001F80FC0000
001F80FC0000
001F807E0000
003F007E0000
003F007F0000
007E003F0000
007E003F8000
00FE001F8000
00FC001F8000
00FC001FC000
01F8000FC000
01F8000FE000
03FFFFFFE000
03FFFFFFF000
07FFFFFFF000
07FFFFFFF000
07FFFFFFF800
0FC00001F800
0FC00000FC00
1F800000FC00
1F800000FC00
1F8000007E00
3F0000007E00
3F0000003F00
7E0000003F00
7E0000003F80
FE0000001F80
FC0000001F80
ENDCHAR
STARTCHAR 00C2
ENCODING 194
SWIDTH 758 0
DWIDTH 44 0
BBX 41 58 1 0
BITMAP
00007F000000
00007F800000
0000FF800000
0000FFC00000
0001F7C00000
0001E3E00000
0003E1E00000
0003C0F00000
000780700000
000700780000
000000000000
000000000000
000000000000
000000000000
000000000000
000000000000
00007F000000
00007F000000
0000FF800000
0000FF800000
0000FFC00000
0001FFC00000
0001FFE00000
0003F7E00000
0003F7E00000
0007E3F00000
0007E3F00000
0007E1F80000
000FC1F80000
000FC1FC0000
001F80FC0000
001F80FC0000
001F807E0000
003F007E0000
003F007F0000
007E003F0000
007E003F8000
00FE001F8000
00FC001F8000
00FC001FC000
01F8000FC000
01F8000FE000
03FFFFFFE000
03FFFFFFF000
07FFFFFFF000
07FFFFFFF000
07FFFFFFF800
0FC00001F800
0FC00000FC00
1F800000FC00
1F800000FC00
1F8000007E00
3F0000007E00
3F0000003F00
7E0000003F00
7E0000003F80
FE0000001F80
FC0000001F80
ENDCHAR
STARTCHAR 00C3
ENCODING 195
SWIDTH 758 0
DWIDTH 44 0
BBX 41 55 1 0
BITMAP
0001F0380000
0003FE780000
0007FFF80000
0007FFF00000
00070FE00000
000F03800000
000000000000
000000000000
000000000000
000000000000
000000000000
000000000000
000000000000
00007F000000
00007F000000
0000FF800000
0000FF800000
0000FFC00000
0001FFC00000
0001FFE00000
0003F7E00000
0003F7E00000
0007E3F00000
0007E3F00000
0007E1F80000
000FC1F80000
000FC1FC0000
001F80FC0000
001F80FC0000
001F807E0000
003F007E0000
003F007F0000
007E003F0000
007E003F8000
00FE001F8000
00FC001F8000
00FC001FC000
01F8000FC000
01F8000FE000
03FFFFFFE000
03FFFFFFF000
07FFFFFFF000
07FFFFFFF000
07FFFFFFF800
0FC00001F800
0FC00000FC00
1F800000FC00
1F800000FC00
1F8000007E00
3F0000007E00
3F0000003F00
7E0000003F00
7E0000003F80
FE0000001F80
FC0000001F80
ENDCHAR
STARTCHAR 00C4
ENCODING 196
SWIDTH 758 0
DWIDTH 44 0
BBX 42 55 1 0
BITMAP
0007C07C0000
0007C07C0000
0007C07C0000
0007C07C0000
0007C07C0000
000000000000
000000000000
000000000000
000000000000
000000000000
000000000000
000000000000
000000000000
00007F000000
00007F000000
00007F800000
0000FF800000
0000FFC00000
0001FFC00000
0001FFE00000
0003F7E00000
0003F7E00000
0003E3F00000
0007E3F00000
0007E1F80000
000FC1F80000
000FC1FC0000
001F80FC0000
001F80FC0000
001F807E0000
003F007E0000
003F003F0000
007E003F0000
007E003F8000
00FE001F8000
00FC001F8000
00FC000FC000
01F8000FC000
01F8000FE000
03FFFFFFE000
03FFFFFFF000
03FFFFFFF000
07FFFFFFF000
07FFFFFFF800
0FC00001F800
0FC00000FC00
1F800000FC00
1F8000007E00
1F8000007E00
3F0000007E00
3F0000003F00
7E0000003F00
7E0000001F80
FC0000001F80
FC0000001FC0
ENDCHAR
STARTCHAR 00C5
ENCODING 197
SWIDTH 758 0
DWIDTH 44 0
BBX 42 61 1 0
BITMAP
00003E000000
0000FF800000
0001E3C00000
000180C00000
000380E00000
000300600000
000300600000
000300600000
000380E00000
000180C00000
0001E3C00000
0000FF800000
00003E000000
000000000000
000000000000
000000000000
000000000000
000000000000
000000000000
00007F800000
00007F800000
0000FF800000
0000FFC00000
0000FFC00000
0001FFE00000
0001FFE00000
0003F7F00000
0003F3F00000
0003F3F00000
0007E1F80000
0007E1F80000
000FC1FC0000
000FC0FC0000
001FC0FC0000
001F807E0000
001F807E0000
003F007F0000
003F003F0000
007F003F8000
007E001F8000
007E001F8000
00FC001FC000
00FC000FC000
01F8000FE000
01F80007E000
03FFFFFFF000
03FFFFFFF000
03FFFFFFF000
07FFFFFFF800
07FFFFFFF800
0FC00000FC00
0FC00000FC00
0FC00000FE00
1F8000007E00
1F8000007E00
3F0000003F00
3F0000003F00
7E0000003F80
7E0000001F80
7E0000001F80
FC0000000FC0
ENDCHAR
STARTCHAR 00C6
ENCODING 198
SWIDTH 982 0
DWIDTH 57 0
BBX 53 42 1 0
BITMAP
000003FFFFFFF0
000003FFFFFFF0
000007FFFFFFF0
000007FFFFFFF0
00000FFFFFFFF0
00000FFE000000
00001FBE000000
00003FBE000000
00003F3E000000
00007F3E000000
00007E3E000000
0000FE3E000000
0000FC3E000000
0001FC3E000000
0001F83E000000
0003F83E000000
0003F03E000000
0007F03E000000
0007E03FFFFFF0
000FE03FFFFFF0
000FC03FFFFFF0
001FC03FFFFFF0
003F803FFFFFF0
003F803E000000
007F003E000000
007F003E000000
00FFFFFE000000
00FFFFFE000000
01FFFFFE000000
01FFFFFE000000
03FFFFFE000000
03F0003E000000
07F0003E000000
07E0003E000000
0FE0003E000000
0FC0003E000000
1F80003E000000
1F80003FFFFFF8
3F00003FFFFFF8
7F00003FFFFFF8
7E00003FFFFFF8
FE00003FFFFFF8
ENDCHAR
STARTCHAR 00C7
ENCODING 199
SWIDTH 672 0
DWIDTH 39 0
BBX 32 57 3 -14
BITMAP
001FFF00
007FFFC0
01FFFFF0
03FFFFF8
07FFFFFC
0FF001FC
0FE0007E
1F80007E
1F80003F
3F00003F
3E00003F
7E00001F
7E000000
7C000000
7C000000
FC000000
FC000000
FC000000
FC000000
F8000000
F8000000
F8000000
F8000000
F8000000
F8000000
FC000000
FC000000
FC000000
7C000000
7C000000
7C000000
7E00001F
3E00001F
3F00001F
1F80003F
1FC0007F
0FE000FE
0FF803FC
07FFFFFC
03FFFFF8
00FFFFE0
003FFFC0
0007FE00
0000C000
0000C000
0000F800
0000FF00
0000FF80
00000F80
000007C0
000003C0
000003C0
000003C0
000807C0
000FFF80
000FFF00
0003FC00
ENDCHAR
STARTCHAR 00C8
ENCODING 200
SWIDTH 620 0
DWIDTH 36 0
BBX 27 58 5 0
BITMAP
07E00000
03E00000
01F00000
01F00000
00F80000
007C0000
003C0000
001E0000
000F0000
000F0000
00000000
00000000
00000000
00000000
00000000
00000000
FFFFFFC0
FFFFFFC0
FFFFFFC0
FFFFFFC0
FFFFFFC0
F8000000
F8000000
F8000000
F8000000
F8000000
F8000000
F8000000
F8000000
F8000000
F8000000
F8000000
F8000000
F8000000
FFFFFFC0
FFFFFFC0
FFFFFFC0
FFFFFFC0
FFFFFFC0
F8000000
F8000000
F8000000
F8000000
F8000000
F8000000
F8000000
F8000000
F8000000
F8000000
F8000000
F8000000
F8000000
F8000000
FFFFFFE0
FFFFFFE0
FFFFFFE0
FFFFFFE0
FFFFFFE0
ENDCHAR
STARTCHAR 00C9
ENCODING 201
SWIDTH 620 0
DWIDTH 36 0
BBX 27 58 5 0
BITMAP
0001F800
0001F800
0003F000
0003E000
0007C000
000F8000
000F0000
001F0000
001E0000
003C0000
00000000
00000000
00000000
00000000
00000000
00000000
FFFFFFC0
FFFFFFC0
FFFFFFC0
FFFFFFC0
FFFFFFC0
F8000000
F8000000
F8000000
F8000000
F8000000
F8000000
F8000000
F8000000
F8000000
F8000000
F8000000
F8000000
F8000000
FFFFFFC0
FFFFFFC0
FFFFFFC0
FFFFFFC0
FFFFFFC0
F8000000
F8000000
F8000000
F8000000
F8000000
F8000000
F8000000
F8000000
F8000000
F8000000
F8000000
F8000000
F8000000
F8000000
FFFFFFE0
FFFFFFE0
FFFFFFE0
FFFFFFE0
FFFFFFE0
ENDCHAR
STARTCHAR 00CA
ENCODING 202
SWIDTH 620 0
DWIDTH 36 0
BBX 27 58 5 0
BITMAP
007F0000
007F8000
00FF8000
00FFC000
01F7C000
01E3E000
03C1F000
03C0F000
07807800
0F007800
00000000
00000000
00000000
00000000
00000000
00000000
FFFFFFC0
FFFFFFC0
FFFFFFC0
FFFFFFC0
FFFFFFC0
F8000000
F8000000
F8000000
F8000000
F8000000
F8000000
F8000000
F8000000
F8000000
F8000000
F8000000
F8000000
F8000000
FFFFFFC0
FFFFFFC0
FFFFFFC0
FFFFFFC0
FFFFFFC0
F8000000
F8000000
F8000000
F8000000
F8000000
F8000000
F8000000
F8000000
F8000000
F8000000
F8000000
F8000000
F8000000
F8000000
FFFFFFE0
FFFFFFE0
FFFFFFE0
FFFFFFE0
FFFFFFE0
ENDCHAR
STARTCHAR 00CB
ENCODING 203
SWIDTH 620 0
DWIDTH 36 0
BBX 27 55 5 0
BITMAP
07C0F800
07C0F800
07C0F800
07C0F800
07C0F800
00000000
00000000
00000000
00000000
00000000
00000000
00000000
00000000
FFFFFFC0
FFFFFFC0
FFFFFFC0
FFFFFFC0
FFFFFFC0
F8000000
F8000000
F8000000
F8000000
F8000000
F8000000
F8000000
F8000000
F8000000
F8000000
F8000000
F8000000
F8000000
FFFFFFC0
FFFFFFC0
FFFFFFC0
FFFFFFC0
FFFFFFC0
F8000000
F8000000
F8000000
F8000000
F8000000
F8000000
F8000000
F8000000
F8000000
F8000000
F8000000
F8000000
F8000000
F8000000
FFFFFFE0
FFFFFFE0
FFFFFFE0
FFFFFFE0
FFFFFFE0
ENDCHAR
STARTCHAR 00CC
ENCODING 204
SWIDTH 258 0
DWIDTH 15 0
BBX 11 58 0 0
BITMAP
FC00
7C00
3E00
1E00
1F00
0F80
0780
03C0
03C0
01E0
0000
0000
0000
0000
0000
0000
07C0
07C0
07C0
07C0
07C0
07C0
07C0
07C0
07C0
07C0
07C0
07C0
07C0
07C0
07C0
07C0
07C0
07C0
07C0
07C0
07C0
07C0
07C0
07C0
07C0
07C0
07C0
07C0
07C0
07C0
07C0
07C0
07C0
07C0
07C0
07C0
07C0
07C0
07C0
07C0
07C0
07C0
ENDCHAR
STARTCHAR 00CD
ENCODING 205
SWIDTH 258 0
DWIDTH 15 0
BBX 10 58 5 0
BITMAP
07C0
0FC0
0F80
1F00
3E00
3C00
7C00
7800
F000
E000
0000
0000
0000
0000
0000
0000
F800
F800
F800
F800
F800
F800
F800
F800
F800
F800
F800
F800
F800
F800
F800
F800
F800
F800
F800
F800
F800
F800
F800
F800
F800
F800
F800
F800
F800
F800
F800
F800
F800
F800
F800
F800
F800
F800
F800
F800
F800
F800
ENDCHAR
STARTCHAR 00CE
ENCODING 206
SWIDTH 258 0
DWIDTH 15 0
BBX 16 58 0 0
BITMAP
07E0
0FF0
1FF0
1FF8
3EF8
3C7C
7C3C
781E
F01E
E00F
0000
0000
0000
0000
0000
0000
07C0
07C0
07C0
07C0
07C0
07C0
07C0
07C0
07C0
07C0
07C0
07C0
07C0
07C0
07C0
07C0
07C0
07C0
07C0
07C0
07C0
07C0
07C0
07C0
07C0
07C0
07C0
07C0
07C0
07C0
07C0
07C0
07C0
07C0
07C0
07C0
07C0
07C0
07C0
07C0
07C0
07C0
ENDCHAR
STARTCHAR 00CF
ENCODING 207
SWIDTH 258 0
DWIDTH 15 0
BBX 17 55 -1 0
BITMAP
F80F80
F80F80
F80F80
F80F80
F80F80
000000
000000
000000
000000
000000
000000
000000
000000
03E000
03E000
03E000
03E000
03E000
03E000
03E000
03E000
03E000
03E000
03E000
03E000
03E000
03E000
03E000
03E000
03E000
03E000
03E000
03E000
03E000
03E000
03E000
03E000
03E000
03E000
03E000
03E000
03E000
03E000
03E000
03E000
03E000
03E000
03E000
03E000
03E000
03E000
03E000
03E000
03E000
03E000
ENDCHAR
STARTCHAR 00D0
ENCODING 208
SWIDTH 706 0
DWIDTH 41 0
BBX 38 42 0 0
BITMAP
07FFFE0000
07FFFFE000
07FFFFF800
07FFFFFE00
07FFFFFF00
07C003FF80
07C0007FC0
07C0001FC0
07C0000FE0
07C00007F0
07C00003F0
07C00003F0
07C00001F8
07C00001F8
07C00000F8
07C00000FC
07C00000FC
07C00000FC
FFFFF000FC
FFFFF0007C
FFFFF0007C
FFFFF0007C
FFFFF000FC
07C00000FC
07C00000FC
07C00000FC
07C00000FC
07C00000F8
07C00001F8
07C00001F8
07C00003F0
07C00003F0
07C00007E0
07C0000FE0
07C0001FC0
07C0007F80
07C003FF80
07FFFFFF00
07FFFFFC00
07FFFFF800
07FFFFE000
07FFFE0000
ENDCHAR
STARTCHAR 00D1
ENCODING 209
SWIDTH 724 0
DWIDTH 42 0
BBX 32 55 5 0
BITMAP
003E0700
007FCF00
00FFFF00
00FFFE00
01E1FC00
01E03000
00000000
00000000
00000000
00000000
00000000
00000000
00000000
FF00001F
FF80001F
FF80001F
FFC0001F
FFC0001F
FFE0001F
FFF0001F
FFF0001F
FBF8001F
F9F8001F
F9FC001F
F8FC001F
F8FE001F
F87E001F
F87F001F
F83F801F
F83F801F
F81FC01F
F81FC01F
F80FE01F
F807E01F
F807F01F
F803F01F
F803F81F
F801FC1F
F801FC1F
F800FE1F
F800FE1F
F8007F1F
F8003F1F
F8003F9F
F8001F9F
F8001FDF
F8000FDF
F8000FFF
F80007FF
F80007FF
F80003FF
F80001FF
F80001FF
F80000FF
F80000FF
ENDCHAR
STARTCHAR 00D2
ENCODING 210
SWIDTH 758 0
DWIDTH 44 0
BBX 37 59 3 -1
BITMAP
001F800000
000F800000
000FC00000
0007C00000
0003E00000
0001F00000
0000F00000
0000780000
0000780000
00003C0000
0000000000
0000000000
0000000000
0000000000
0000000000
0000000000
000FFFC000
007FFFF000
00FFFFFC00
01FFFFFE00
07FFFFFF00
07F8007F80
0FE0001FC0
1FC0000FC0
1F800007E0
3F000007E0
3E000003F0
7E000003F0
7E000001F0
7C000001F8
7C000001F8
FC000000F8
FC000000F8
FC000000F8
FC000000F8
F8000000F8
F8000000F8
F8000000F8
F8000000F8
FC000000F8
FC000000F8
FC000000F8
7C000001F8
7C000001F8
7C000001F0
7E000001F0
3E000003F0
3F000003F0
3F000007E0
1F800007E0
1FC0000FC0
0FE0001F80
07F0007F80
03FE01FF00
01FFFFFE00
00FFFFFC00
007FFFF000
001FFFC000
0003FE0000
ENDCHAR
STARTCHAR 00D3
ENCODING 211
SWIDTH 758 0
DWIDTH 44 0
BBX 37 59 3 -1
BITMAP
000007E000
00000FC000
00000F8000
00001F0000
00003E0000
00003E0000
00007C0000
0000780000
0000F00000
0001E00000
0000000000
0000000000
0000000000
0000000000
0000000000
0000000000
000FFFC000
007FFFF000
00FFFFFC00
01FFFFFE00
07FFFFFF00
07F8007F80
0FE0001FC0
1FC0000FC0
1F800007E0
3F000007E0
3E000003F0
7E000003F0
7E000001F0
7C000001F8
7C000001F8
FC000000F8
FC000000F8
FC000000F8
FC000000F8
F8000000F8
F8000000F8
F8000000F8
F8000000F8
FC000000F8
FC000000F8
FC000000F8
7C000001F8
7C000001F8
7C000001F0
7E000001F0
3E000003F0
3F000003F0
3F000007E0
1F800007E0
1FC0000FC0
0FE0001F80
07F0007F80
03FE01FF00
01FFFFFE00
00FFFFFC00
007FFFF000
001FFFC000
0003FE0000
ENDCHAR
STARTCHAR 00D4
ENCODING 212
SWIDTH 758 0
DWIDTH 44 0
BBX 37 59 3 -1
BITMAP
0001FC0000
0001FE0000
0003FE0000
0003FF0000
0007DF0000
00078F8000
000F07C000
000F03C000
001E01E000
003C01E000
0000000000
0000000000
0000000000
0000000000
0000000000
0000000000
000FFFC000
007FFFF000
00FFFFFC00
01FFFFFE00
07FFFFFF00
07F8007F80
0FE0001FC0
1FC0000FC0
1F800007E0
3F000007E0
3E000003F0
7E000003F0
7E000001F0
7C000001F8
7C000001F8
FC000000F8
FC000000F8
FC000000F8
FC000000F8
F8000000F8
F8000000F8
F8000000F8
F8000000F8
FC000000F8
FC000000F8
FC000000F8
7C000001F8
7C000001F8
7C000001F0
7E000001F0
3E000003F0
3F000003F0
3F000007E0
1F800007E0
1FC0000FC0
0FE0001F80
07F0007F80
03FE01FF00
01FFFFFE00
00FFFFFC00
007FFFF000
001FFFC000
0003FE0000
ENDCHAR
STARTCHAR 00D5
ENCODING 213
SWIDTH 758 0
DWIDTH 44 0
BBX 37 56 3 -1
BITMAP
0007C0E000
000FF1E000
001FFFE000
001FFFC000
003C7F8000
003C0F0000
0000000000
0000000000
0000000000
0000000000
0000000000
0000000000
0000000000
000FFFC000
007FFFF000
00FFFFFC00
01FFFFFE00
07FFFFFF00
07F8007F80
0FE0001FC0
1FC0000FC0
1F800007E0
3F000007E0
3E000003F0
7E000003F0
7E000001F0
7C000001F8
7C000001F8
FC000000F8
FC000000F8
FC000000F8
FC000000F8
F8000000F8
F8000000F8
F8000000F8
F8000000F8
FC000000F8
FC000000F8
FC000000F8
7C000001F8
7C000001F8
7C000001F0
7E000001F0
3E000003F0
3F000003F0
3F000007E0
1F800007E0
1FC0000FC0
0FE0001F80
07F0007F80
03FE01FF00
01FFFFFE00
00FFFFFC00
007FFFF000
001FFFC000
0003FE0000
ENDCHAR
STARTCHAR 00D6
ENCODING 214
SWIDTH 758 0
DWIDTH 44 0
BBX 37 56 3 -1
BITMAP
000F81F000
000F81F000
000F81F000
000F81F000
000F81F000
0000000000
0000000000
0000000000
0000000000
0000000000
0000000000
0000000000
0000000000
000FFFC000
007FFFF000
00FFFFFC00
01FFFFFE00
07FFFFFF00
07F8007F80
0FE0001FC0
1FC0000FC0
1F800007E0
3F000007E0
3E000003F0
7E000003F0
7E000001F0
7C000001F8
7C000001F8
FC000000F8
FC000000F8
FC000000F8
FC000000F8
F8000000F8
F8000000F8
F8000000F8
F8000000F8
FC000000F8
FC000000F8
FC000000F8
7C000001F8
7C000001F8
7C000001F0
7E000001F0
3E000003F0
3F000003F0
3F000007E0
1F800007E0
1FC0000FC0
0FE0001F80
07F0007F80
03FE01FF00
01FFFFFE00
00FFFFFC00
007FFFF000
001FFFC000
0003FE0000
ENDCHAR
STARTCHAR 00D7
ENCODING 215
SWIDTH 1000 0
DWIDTH 58 0
BBX 30 31 14 2
BITMAP
40000008
E000001C
F000003C
78000078
3C0000F0
1E0001E0
0F0003C0
07800780
03C00F00
01E01E00
00F03C00
00787800
003CF000
001FE000
000FC000
00078000
000FC000
001FE000
003CF000
00787800
00F03C00
01E01E00
03C00F00
07800780
0F0003C0
1E0001E0
3C0000F0
78000078
F000003C
E000001C
40000008
ENDCHAR
STARTCHAR 00D8
ENCODING 216
SWIDTH 758 0
DWIDTH 44 0
BBX 37 53 3 -6
BITMAP
0000000060
00000000F0
00000000F8
00000001F8
00000003F0
000FFFC3F0
003FFFF7E0
00FFFFFFE0
01FFFFFFC0
03FFFFFF80
07F800FF80
0FE0003FC0
1FC0007FE0
1F8000FFE0
3F0000FFE0
3E0001FBF0
7E0003FBF0
7E0003F1F0
7C0007E1F8
7C000FE1F8
FC000FC0F8
FC001F80F8
FC003F80F8
FC003F00F8
F8007E00F8
F800FE00F8
F801FC00F8
F801F800F8
FC03F800F8
FC07F000F8
FC07E000F8
FC0FE001F8
7C1FC001F8
7C1F8001F0
7E3F8001F0
7E7F0003F0
3F7E0003F0
3FFE0007E0
1FFC0007E0
1FF8000FC0
0FF0001F80
0FF0007F80
07FE01FF00
0FFFFFFE00
0FFFFFF800
1FFFFFF000
3F1FFFC000
3F03FE0000
7E00000000
FC00000000
FC00000000
3800000000
1000000000
ENDCHAR
STARTCHAR 00D9
ENCODING 217
SWIDTH 741 0
DWIDTH 43 0
BBX 33 59 5 -1
BITMAP
007E000000
003E000000
003F000000
001F000000
000F800000
0007C00000
0003C00000
0001E00000
0001E00000
0000F00000
0000000000
0000000000
0000000000
0000000000
0000000000
0000000000
F800000F80
F800000F80
F800000F80
F800000F80
F800000F80
F800000F80
F800000F80
F800000F80
F800000F80
F800000F80
F800000F80
F800000F80
F800000F80
F800000F80
F800000F80
F800000F80
F800000F80
F800000F80
F800000F80
F800000F80
F800000F80
F800000F80
F800000F80
F800000F80
F800000F80
F800000F80
FC00000F80
FC00000F80
FC00000F80
FC00001F80
7C00001F80
7C00001F80
7E00001F00
7E00003F00
3F00007F00
3F80007E00
1FC001FE00
1FF007FC00
0FFFFFF800
07FFFFF000
03FFFFE000
00FFFF8000
001FFC0000
ENDCHAR
STARTCHAR 00DA
ENCODING 218
SWIDTH 741 0
DWIDTH 43 0
BBX 33 59 5 -1
BITMAP
00001F8000
00003F0000
00003E0000
00007C0000
0000F80000
0000F80000
0001F00000
0001E00000
0003C00000
0007800000
0000000000
0000000000
0000000000
0000000000
0000000000
0000000000
F800000F80
F800000F80
F800000F80
F800000F80
F800000F80
F800000F80
F800000F80
F800000F80
F800000F80
F800000F80
F800000F80
F800000F80
F800000F80
F800000F80
F800000F80
F800000F80
F800000F80
F800000F80
F800000F80
F800000F80
F800000F80
F800000F80
F800000F80
F800000F80
F800000F80
F800000F80
FC00000F80
FC00000F80
FC00000F80
FC00001F80
7C00001F80
7C00001F80
7E00001F00
7E00003F00
3F00007F00
3F80007E00
1FC001FE00
1FF007FC00
0FFFFFF800
07FFFFF000
03FFFFE000
00FFFF8000
001FFC0000
ENDCHAR
STARTCHAR 00DB
ENCODING 219
SWIDTH 741 0
DWIDTH 43 0
BBX 33 59 5 -1
BITMAP
0007F00000
0007F80000
000FF80000
001FFC0000
001F7C0000
003E3E0000
003C1F0000
007C0F0000
0078078000
00F0078000
0000000000
0000000000
0000000000
0000000000
0000000000
0000000000
F800000F80
F800000F80
F800000F80
F800000F80
F800000F80
F800000F80
F800000F80
F800000F80
F800000F80
F800000F80
F800000F80
F800000F80
F800000F80
F800000F80
F800000F80
F800000F80
F800000F80
F800000F80
F800000F80
F800000F80
F800000F80
F800000F80
F800000F80
F800000F80
F800000F80
F800000F80
FC00000F80
FC00000F80
FC00000F80
FC00001F80
7C00001F80
7C00001F80
7E00001F00
7E00003F00
3F00007F00
3F80007E00
1FC001FE00
1FF007FC00
0FFFFFF800
07FFFFF000
03FFFFE000
00FFFF8000
001FFC0000
ENDCHAR
STARTCHAR 00DC
ENCODING 220
SWIDTH 741 0
DWIDTH 43 0
BBX 33 55 5 -1
BITMAP
007C07C000
007C07C000
007C07C000
007C07C000
007C07C000
0000000000
0000000000
0000000000
0000000000
0000000000
0000000000
0000000000
F800000F80
F800000F80
F800000F80
F800000F80
F800000F80
F800000F80
F800000F80
F800000F80
F800000F80
F800000F80
F800000F80
F800000F80
F800000F80
F800000F80
F800000F80
F800000F80
F800000F80
F800000F80
F800000F80
F800000F80
F800000F80
F800000F80
F800000F80
F800000F80
F800000F80
F800000F80
FC00000F80
FC00000F80
FC00000F80
FC00001F80
7C00001F80
7C00001F80
7E00001F00
7E00003F00
3F00007F00
3F80007E00
1FC001FE00
1FF007FC00
0FFFFFF800
07FFFFF000
03FFFFE000
00FFFF8000
001FFC0000
ENDCHAR
STARTCHAR 00DD
ENCODING 221
SWIDTH 655 0
DWIDTH 38 0
BBX 36 58 1 0
BITMAP
00000FC000
00000F8000
00001F0000
00001F0000
00003E0000
00003C0000
0000780000
0000F00000
0000F00000
0001E00000
0000000000
0000000000
0000000000
0000000000
0000000000
0000000000
FE000007F0
FE000007E0
7F00000FC0
3F80001FC0
3F80001F80
1FC0003F80
1FC0003F00
0FE0007E00
07E0007E00
07F000FC00
03F801FC00
01F801F800
01FC03F000
00FC03F000
00FE07E000
007E07C000
003F0FC000
003F8F8000
001F9F8000
001FFF0000
000FFE0000
0007FE0000
0007FC0000
0003FC0000
0001F80000
0001F00000
0001F00000
0001F00000
0001F00000
0001F00000
0001F00000
0001F00000
0001F00000
0001F00000
0001F00000
0001F00000
0001F00000
0001F00000
0001F00000
0001F00000
0001F00000
0001F00000
ENDCHAR
STARTCHAR 00DE
ENCODING 222
SWIDTH 620 0
DWIDTH 36 0
BBX 28 42 5 0
BITMAP
F8000000
F8000000
F8000000
F8000000
F8000000
F8000000
F8000000
F8000000
FFFFC000
FFFFFC00
FFFFFF00
FFFFFF80
FFFFFFC0
F8007FC0
F8000FE0
F80007E0
F80003F0
F80003F0
F80003F0
F80001F0
F80001F0
F80003F0
F80003F0
F80003F0
F80007E0
F8000FE0
F8007FC0
FFFFFFC0
FFFFFF80
FFFFFF00
FFFFFC00
FFFFC000
F8000000
F8000000
F8000000
F8000000
F8000000
F8000000
F8000000
F8000000
F8000000
F8000000
ENDCHAR
STARTCHAR 00DF
ENCODING 223
SWIDTH 568 0
DWIDTH 33 0
BBX 29 43 3 0
BITMAP
00FFE000
07FFF800
0FFFFC00
1FF1FE00
3F807F00
7E003F00
FC001F00
FC001F00
FC001F00
F8001F00
F8001F00
F8003F00
F8007E00
F801FC00
F803F800
F807F000
F80FE000
F80FC000
F80F8000
F80F8000
F80F8000
F80FC000
F80FF000
F807FC00
F803FF00
F801FF80
F8007FE0
F8003FE0
F8000FF0
F80003F8
F80001F8
F80001F8
F80000F8
F80000F8
F87C00F8
F87C00F8
F87E00F8
F83F00F8
F83F81F0
F81FFFF0
F80FFFE0
F803FFC0
0000FE00
ENDCHAR
STARTCHAR 00E0
ENCODING 224
SWIDTH 551 0
DWIDTH 32 0
BBX 26 46 3 -1
BITMAP
03F00000
01F80000
00F80000
007C0000
007C0000
003E0000
001E0000
000F0000
00078000
00078000
0003C000
00000000
00000000
00000000
00000000
00FFC000
03FFF800
0FFFFE00
1FFFFE00
3FC07F00
3F003F00
3F001F80
3E001F80
3E000F80
00000F80
00000F80
00000F80
003FFF80
01FFFF80
0FFFFF80
1FFFFF80
3FE00F80
7F001F80
7E001F80
FC001F80
FC001F80
F8001F80
F8001F80
FC003F80
FC003F80
7E007F80
7F01FF80
3FFFEF80
1FFFCF80
07FF0FC0
01FC0000
ENDCHAR
STARTCHAR 00E1
ENCODING 225
SWIDTH 551 0
DWIDTH 32 0
BBX 26 46 3 -1
BITMAP
0003F000
0003E000
0007C000
0007C000
000F8000
001F0000
001E0000
003C0000
003C0000
00780000
00000000
00000000
00000000
00000000
00000000
00FFC000
03FFF800
0FFFFE00
1FFFFE00
3FC07F00
3F003F00
3F001F80
3E001F80
3E000F80
00000F80
00000F80
00000F80
003FFF80
01FFFF80
0FFFFF80
1FFFFF80
3FE00F80
7F001F80
7E001F80
FC001F80
FC001F80
F8001F80
F8001F80
FC003F80
FC003F80
7E007F80
7F01FF80
3FFFEF80
1FFFCF80
07FF0FC0
01FC0000
ENDCHAR
STARTCHAR 00E2
ENCODING 226
SWIDTH 551 0
DWIDTH 32 0
BBX 26 46 3 -1
BITMAP
003F0000
007F8000
007FC000
00FFC000
00F3E000
01F1E000
03E1F000
03C0F000
07807800
07803800
00000000
00000000
00000000
00000000
00000000
00FFC000
03FFF800
0FFFFE00
1FFFFE00
3FC07F00
3F003F00
3F001F80
3E001F80
3E000F80
00000F80
00000F80
00000F80
003FFF80
01FFFF80
0FFFFF80
1FFFFF80
3FE00F80
7F001F80
7E001F80
FC001F80
FC001F80
F8001F80
F8001F80
FC003F80
FC003F80
7E007F80
7F01FF80
3FFFEF80
1FFFCF80
07FF0FC0
01FC0000
ENDCHAR
STARTCHAR 00E3
ENCODING 227
SWIDTH 551 0
DWIDTH 32 0
BBX 26 43 3 -1
BITMAP
00F03800
01FC3800
03FFF800
07FFF000
078FF000
0701C000
00000000
00000000
00000000
00000000
00000000
00000000
00FFC000
03FFF800
0FFFFE00
1FFFFE00
3FC07F00
3F003F00
3F001F80
3E001F80
3E000F80
00000F80
00000F80
00000F80
003FFF80
01FFFF80
0FFFFF80
1FFFFF80
3FE00F80
7F001F80
7E001F80
FC001F80
FC001F80
F8001F80
F8001F80
FC003F80
FC003F80
7E007F80
7F01FF80
3FFFEF80
1FFFCF80
07FF0FC0
01FC0000
ENDCHAR
STARTCHAR 00E4
ENCODING 228
SWIDTH 551 0
DWIDTH 32 0
BBX 26 43 3 -1
BITMAP
07C0F800
07C0F800
07C0F800
07C0F800
07C0F800
00000000
00000000
00000000
00000000
00000000
00000000
00000000
00FFC000
03FFF800
0FFFFE00
1FFFFE00
3FC07F00
3F003F00
3F001F80
3E001F80
3E000F80
00000F80
00000F80
00000F80
003FFF80
01FFFF80
0FFFFF80
1FFFFF80
3FE00F80
7F001F80
7E001F80
FC001F80
FC001F80
F8001F80
F8001F80
FC003F80
FC003F80
7E007F80
7F01FF80
3FFFEF80
1FFFCF80
07FF0FC0
01FC0000
ENDCHAR
STARTCHAR 00E5
ENCODING 229
SWIDTH 551 0
DWIDTH 32 0
BBX 26 49 3 -1
BITMAP
001E0000
007F8000
00E1C000
00C0C000
01806000
01806000
01806000
01806000
01806000
01C0C000
00E1C000
007F8000
001E0000
00000000
00000000
00000000
00000000
00000000
00FFC000
03FFF800
0FFFFE00
1FFFFE00
3FC07F00
3F003F00
3F001F80
3E001F80
3E000F80
00000F80
00000F80
00000F80
003FFF80
01FFFF80
0FFFFF80
1FFFFF80
3FE00F80
7F001F80
7E001F80
FC001F80
FC001F80
F8001F80
F8001F80
FC003F80
FC003F80
7E007F80
7F01FF80
3FFFEF80
1FFFCF80
07FF0FC0
01FC0000
ENDCHAR
STARTCHAR 00E6
ENCODING 230
SWIDTH 913 0
DWIDTH 53 0
BBX 47 31 3 -1
BITMAP
00FF8003FE00
07FFF00FFF80
0FFFF81FFFC0
1FFFFC3FFFE0
3F807E7E03F0
3F001E7C01F8
3E000FF800F8
3E000FF0007C
000007F0007C
000007E0007C
000007E0007E
000007E0003E
001FFFFFFFFE
03FFFFFFFFFE
0FFFFFFFFFFE
1FFFFFFFFFFE
3FF007C00000
7F8007C00000
7E0007E00000
FC0007E00000
FC0007E00000
F8000FE0007C
F8000FF0007C
FC001EF0007C
FC001EF800FC
7E003EF801F8
7F007C7E03F8
3FFFF83FFFF0
1FFFF01FFFE0
0FFFC00FFF80
01FF0001FE00
ENDCHAR
STARTCHAR 00E7
ENCODING 231
SWIDTH 517 0
DWIDTH 30 0
BBX 24 45 3 -15
BITMAP
00FF80
03FFF0
0FFFF8
1FFFFC
3F80FE
3F003F
7E003F
7E001F
7C001F
7C001F
FC0000
FC0000
FC0000
F80000
F80000
F80000
F80000
F80000
FC0000
FC0000
FC001F
7C001F
7C001F
7E003F
3E003F
3F007E
1F80FE
1FFFFC
07FFF8
03FFF0
007F80
001800
001800
001F80
001FE0
001FF8
0001F8
00007C
00003C
00003C
00003C
018078
01FFF8
01FFE0
007F00
ENDCHAR
STARTCHAR 00E8
ENCODING 232
SWIDTH 568 0
DWIDTH 33 0
BBX 27 46 3 -1
BITMAP
07E00000
03F00000
01F00000
00F80000
00F80000
007C0000
003E0000
001E0000
000F0000
00070000
00000000
00000000
00000000
00000000
00000000
003FC000
01FFF000
07FFFC00
0FFFFE00
1FC07F00
1F801F00
3F001F80
3E000F80
7E000FC0
7C0007C0
7C0007C0
FC0007C0
FC0007C0
FFFFFFC0
FFFFFFE0
FFFFFFE0
FFFFFFE0
F8000000
F8000000
FC000000
7C000000
7C0007C0
7C000FC0
3E000FC0
3E001F80
1F001F80
1FC07F00
0FFFFE00
07FFFC00
01FFF000
003FC000
ENDCHAR
STARTCHAR 00E9
ENCODING 233
SWIDTH 568 0
DWIDTH 33 0
BBX 27 46 3 -1
BITMAP
0001F800
0001F000
0003E000
0007E000
0007C000
000F8000
000F0000
001E0000
003C0000
003C0000
00000000
00000000
00000000
00000000
00000000
003FC000
01FFF000
07FFFC00
0FFFFE00
1FC07F00
1F801F00
3F001F80
3E000F80
7E000FC0
7C0007C0
7C0007C0
FC0007C0
FC0007C0
FFFFFFC0
FFFFFFE0
FFFFFFE0
FFFFFFE0
F8000000
F8000000
FC000000
7C000000
7C0007C0
7C000FC0
3E000FC0
3E001F80
1F001F80
1FC07F00
0FFFFE00
07FFFC00
01FFF000
003FC000
ENDCHAR
STARTCHAR 00EA
ENCODING 234
SWIDTH 568 0
DWIDTH 33 0
BBX 27 46 3 -1
BITMAP
003F8000
007F8000
00FFC000
00FFC000
01F3E000
01F1E000
03E1F000
03C0F000
07807800
07003800
00000000
00000000
00000000
00000000
00000000
003FC000
01FFF000
07FFFC00
0FFFFE00
1FC07F00
1F801F00
3F001F80
3E000F80
7E000FC0
7C0007C0
7C0007C0
FC0007C0
FC0007C0
FFFFFFC0
FFFFFFE0
FFFFFFE0
FFFFFFE0
F8000000
F8000000
FC000000
7C000000
7C0007C0
7C000FC0
3E000FC0
3E001F80
1F001F80
1FC07F00
0FFFFE00
07FFFC00
01FFF000
003FC000
ENDCHAR
STARTCHAR 00EB
ENCODING 235
SWIDTH 568 0
DWIDTH 33 0
BBX 27 43 3 -1
BITMAP
07C0F800
07C0F800
07C0F800
07C0F800
07C0F800
00000000
00000000
00000000
00000000
00000000
00000000
00000000
003FC000
01FFF000
07FFFC00
0FFFFE00
1FC07F00
1F003F00
3F001F80
3E000F80
7E000FC0
7C000FC0
7C0007C0
FC0007C0
FC0007C0
FFFFFFC0
FFFFFFE0
FFFFFFE0
FFFFFFE0
F8000000
F8000000
FC000000
7C000000
7C000FC0
7C000FC0
3E000FC0
3E001F80
1F003F80
1FC07F00
0FFFFE00
07FFFC00
01FFF000
003FC000
ENDCHAR
STARTCHAR 00EC
ENCODING 236
SWIDTH 224 0
DWIDTH 13 0
BBX 11 45 -1 0
BITMAP
FC00
7C00
3E00
3E00
1F00
0F80
0780
03C0
03C0
01E0
0000
0000
0000
0000
0000
0000
07C0
07C0
07C0
07C0
07C0
07C0
07C0
07C0
07C0
07C0
07C0
07C0
07C0
07C0
07C0
07C0
07C0
07C0
07C0
07C0
07C0
07C0
07C0
07C0
07C0
07C0
07C0
07C0
07C0
ENDCHAR
STARTCHAR 00ED
ENCODING 237
SWIDTH 224 0
DWIDTH 13 0
BBX 12 45 3 0
BITMAP
03F0
07E0
07C0
0F80
1F00
1E00
3E00
3C00
7800
F000
0000
0000
0000
0000
0000
0000
7C00
7C00
7C00
7C00
7C00
7C00
7C00
7C00
7C00
7C00
7C00
7C00
7C00
7C00
7C00
7C00
7C00
7C00
7C00
7C00
7C00
7C00
7C00
7C00
7C00
7C00
7C00
7C00
7C00
ENDCHAR
STARTCHAR 00EE
ENCODING 238
SWIDTH 224 0
DWIDTH 13 0
BBX 17 45 -2 0
BITMAP
07F000
07F800
0FF800
0FFC00
1F7C00
1E3E00
3C1E00
7C0F00
780700
F00780
000000
000000
000000
000000
000000
000000
03E000
03E000
03E000
03E000
03E000
03E000
03E000
03E000
03E000
03E000
03E000
03E000
03E000
03E000
03E000
03E000
03E000
03E000
03E000
03E000
03E000
03E000
03E000
03E000
03E000
03E000
03E000
03E000
03E000
ENDCHAR
STARTCHAR 00EF
ENCODING 239
SWIDTH 224 0
DWIDTH 13 0
BBX 17 42 -2 0
BITMAP
F81F80
F81F80
F81F80
F81F80
F81F80
000000
000000
000000
000000
000000
000000
000000
000000
03E000
03E000
03E000
03E000
03E000
03E000
03E000
03E000
03E000
03E000
03E000
03E000
03E000
03E000
03E000
03E000
03E000
03E000
03E000
03E000
03E000
03E000
03E000
03E000
03E000
03E000
03E000
03E000
03E000
ENDCHAR
STARTCHAR 00F0
ENCODING 240
SWIDTH 586 0
DWIDTH 34 0
BBX 28 44 3 -1
BITMAP
0C000600
1F001E00
0FC07F00
07F1FC00
01FFF000
00FF8000
00FF0000
03FFC000
0FE7E000
3F83F000
7C01F800
3000FC00
00007E00
003FFF00
01FFFF00
07FFFF80
0FFFFFC0
1FE03FC0
3F801FC0
3F000FE0
7F0007E0
7E0003E0
7E0003F0
FC0003F0
FC0001F0
FC0001F0
FC0001F0
F80001F0
F80001F0
F80001F0
FC0001F0
FC0001F0
FC0001F0
7C0003F0
7C0003F0
7E0003E0
7E0007E0
3F000FC0
1F801FC0
1FC03F80
0FFFFF00
07FFFE00
01FFF800
003FC000
ENDCHAR
STARTCHAR 00F1
ENCODING 241
SWIDTH 568 0
DWIDTH 33 0
BBX 25 42 4 0
BITMAP
01F03800
03FC7800
07FFF000
07FFF000
070FE000
0F038000
00000000
00000000
00000000
00000000
00000000
00000000
001FC000
F8FFF800
F9FFFC00
FBFFFE00
FBC0FF00
FF003F80
FE003F80
FC001F80
FC000F80
FC000F80
F8000F80
F8000F80
F8000F80
F8000F80
F8000F80
F8000F80
F8000F80
F8000F80
F8000F80
F8000F80
F8000F80
F8000F80
F8000F80
F8000F80
F8000F80
F8000F80
F8000F80
F8000F80
F8000F80
F8000F80
ENDCHAR
STARTCHAR 00F2
ENCODING 242
SWIDTH 586 0
DWIDTH 34 0
BBX 28 46 3 -1
BITMAP
03F00000
01F80000
00F80000
007C0000
003C0000
003E0000
001F0000
000F0000
00078000
00038000
00000000
00000000
00000000
00000000
00000000
003FC000
01FFF800
03FFFE00
07FFFF00
0FE03F80
1F801FC0
3F000FC0
3F0007E0
7E0007E0
7E0003F0
7C0003F0
FC0001F0
FC0001F0
FC0001F0
F80001F0
F80001F0
F80001F0
FC0001F0
FC0001F0
FC0001F0
7C0003F0
7E0003F0
7E0007E0
3F0007E0
3F000FC0
1F801FC0
1FE03F80
0FFFFF00
03FFFE00
01FFF800
003FC000
ENDCHAR
STARTCHAR 00F3
ENCODING 243
SWIDTH 586 0
DWIDTH 34 0
BBX 28 46 3 -1
BITMAP
0000FC00
0000F800
0001F000
0003E000
0003E000
0007C000
00078000
000F0000
000E0000
001E0000
00000000
00000000
00000000
00000000
00000000
003FC000
01FFF800
03FFFE00
07FFFF00
0FE03F80
1F801FC0
3F000FC0
3F0007E0
7E0007E0
7E0003F0
7C0003F0
FC0001F0
FC0001F0
FC0001F0
F80001F0
F80001F0
F80001F0
FC0001F0
FC0001F0
FC0001F0
7C0003F0
7E0003F0
7E0007E0
3F0007E0
3F000FC0
1F801FC0
1FE03F80
0FFFFF00
03FFFE00
01FFF800
003FC000
ENDCHAR
STARTCHAR 00F4
ENCODING 244
SWIDTH 586 0
DWIDTH 34 0
BBX 28 46 3 -1
BITMAP
001FC000
003FC000
003FE000
007FE000
0079F000
00F8F000
00F0F800
01E07800
01C03C00
03C01C00
00000000
00000000
00000000
00000000
00000000
003FC000
01FFF800
03FFFE00
07FFFF00
0FE03F80
1F801FC0
3F000FC0
3F0007E0
7E0007E0
7E0003F0
7C0003F0
FC0001F0
FC0001F0
FC0001F0
F80001F0
F80001F0
F80001F0
FC0001F0
FC0001F0
FC0001F0
7C0003F0
7E0003F0
7E0007E0
3F0007E0
3F000FC0
1F801FC0
1FE03F80
0FFFFF00
03FFFE00
01FFF800
003FC000
ENDCHAR
STARTCHAR 00F5
ENCODING 245
SWIDTH 586 0
DWIDTH 34 0
BBX 28 43 3 -1
BITMAP
00781E00
00FF1C00
01FFFC00
03FFF800
03C7F800
0380E000
00000000
00000000
00000000
00000000
00000000
00000000
003FC000
01FFF800
03FFFE00
07FFFF00
0FE03F80
1F801FC0
3F000FC0
3F0007E0
7E0007E0
7E0003F0
7C0003F0
FC0001F0
FC0001F0
FC0001F0
F80001F0
F80001F0
F80001F0
FC0001F0
FC0001F0
FC0001F0
7C0003F0
7E0003F0
7E0007E0
3F0007E0
3F000FC0
1F801FC0
1FE03F80
0FFFFF00
03FFFE00
01FFF800
003FC000
ENDCHAR
STARTCHAR 00F6
ENCODING 246
SWIDTH 586 0
DWIDTH 34 0
BBX 28 43 3 -1
BITMAP
03E03E00
03E03E00
03E03E00
03E03E00
03E03E00
00000000
00000000
00000000
00000000
00000000
00000000
00000000
003FC000
01FFF800
03FFFE00
07FFFF00
0FE03F80
1F801FC0
3F000FC0
3F0007E0
7E0007E0
7E0003F0
7C0003F0
FC0001F0
FC0001F0
FC0001F0
F80001F0
F80001F0
F80001F0
FC0001F0
FC0001F0
FC0001F0
7C0003F0
7E0003F0
7E0007E0
3F0007E0
3F000FC0
1F801FC0
1FE03F80
0FFFFF00
03FFFE00
01FFF800
003FC000
ENDCHAR
STARTCHAR 00F7
ENCODING 247
SWIDTH 1017 0
DWIDTH 59 0
BBX 35 26 12 5
BITMAP
0000E00000
0001F00000
0003F80000
0003F80000
0003F80000
0001F00000
0000E00000
0000000000
0000000000
0000000000
0000000000
FFFFFFFFE0
FFFFFFFFE0
FFFFFFFFE0
FFFFFFFFE0
0000000000
0000000000
0000000000
0000000000
0000E00000
0001F00000
0003F80000
0003F80000
0003F80000
0001F00000
0000E00000
ENDCHAR
STARTCHAR 00F8
ENCODING 248
SWIDTH 586 0
DWIDTH 34 0
BBX 30 39 2 -4
BITMAP
00000030
0000007C
00000078
000000F0
001FE1F0
00FFFFE0
01FFFFC0
03FFFFC0
07F01FC0
0FC00FE0
1F801FE0
1F803FF0
3F003FF0
3F0079F8
3E00F9F8
7E01F0F8
7E01E0F8
7E03E0F8
7C07C0F8
7C0780F8
7C0F00F8
7E1F00F8
7E3E00F8
7E3C00F8
7E7C01F8
3FF801F8
3FF003F0
3FE003F0
1FE007E0
0FC00FE0
0FF01FC0
0FFFFF80
1FFFFF00
3EFFFC00
3C1FE000
7C000000
F8000000
70000000
20000000
ENDCHAR
STARTCHAR 00F9
ENCODING 249
SWIDTH 568 0
DWIDTH 33 0
BBX 25 46 4 -1
BITMAP
07C00000
03E00000
03F00000
01F00000
00F80000
00780000
003C0000
003C0000
001E0000
000E0000
00000000
00000000
00000000
00000000
00000000
00000000
F8000F80
F8000F80
F8000F80
F8000F80
F8000F80
F8000F80
F8000F80
F8000F80
F8000F80
F8000F80
F8000F80
F8000F80
F8000F80
F8000F80
F8000F80
F8000F80
F8000F80
F8000F80
F8000F80
F8000F80
FC001F80
FC001F80
FC001F80
7E003F80
7F007F80
7F80EF80
3FFFEF80
1FFFCF80
0FFF8F80
01FC0000
ENDCHAR
STARTCHAR 00FA
ENCODING 250
SWIDTH 568 0
DWIDTH 33 0
BBX 25 46 4 -1
BITMAP
0003F000
0003E000
0007C000
0007C000
000F8000
000F0000
001E0000
003E0000
003C0000
00780000
00000000
00000000
00000000
00000000
00000000
00000000
F8000F80
F8000F80
F8000F80
F8000F80
F8000F80
F8000F80
F8000F80
F8000F80
F8000F80
F8000F80
F8000F80
F8000F80
F8000F80
F8000F80
F8000F80
F8000F80
F8000F80
F8000F80
F8000F80
F8000F80
FC001F80
FC001F80
FC001F80
7E003F80
7F007F80
7F80EF80
3FFFEF80
1FFFCF80
0FFF8F80
01FC0000
ENDCHAR
STARTCHAR 00FB
ENCODING 251
SWIDTH 568 0
DWIDTH 33 0
BBX 25 46 4 -1
BITMAP
007F0000
007F0000
00FF8000
00FF8000
01F7C000
01E3C000
03C1E000
03C1E000
0780F000
07007000
00000000
00000000
00000000
00000000
00000000
00000000
F8000F80
F8000F80
F8000F80
F8000F80
F8000F80
F8000F80
F8000F80
F8000F80
F8000F80
F8000F80
F8000F80
F8000F80
F8000F80
F8000F80
F8000F80
F8000F80
F8000F80
F8000F80
F8000F80
F8000F80
FC001F80
FC001F80
FC001F80
7E003F80
7F007F80
7F80EF80
3FFFEF80
1FFFCF80
0FFF8F80
01FC0000
ENDCHAR
STARTCHAR 00FC
ENCODING 252
SWIDTH 568 0
DWIDTH 33 0
BBX 25 43 4 -1
BITMAP
0F80F800
0F80F800
0F80F800
0F80F800
0F80F800
00000000
00000000
00000000
00000000
00000000
00000000
00000000
00000000
F8000F80
F8000F80
F8000F80
F8000F80
F8000F80
F8000F80
F8000F80
F8000F80
F8000F80
F8000F80
F8000F80
F8000F80
F8000F80
F8000F80
F8000F80
F8000F80
F8000F80
F8000F80
F8000F80
F8000F80
FC001F80
FC001F80
FC001F80
7E003F80
7F007F80
7F80EF80
3FFFEF80
1FFFCF80
0FFF8F80
01FC0000
ENDCHAR
STARTCHAR 00FD
ENCODING 253
SWIDTH 534 0
DWIDTH 31 0
BBX 29 57 1 -12
BITMAP
00003E00
00007C00
0000FC00
0000F800
0001F000
0001E000
0003C000
0007C000
00078000
000F0000
00000000
00000000
00000000
00000000
00000000
00000000
FC0001F8
FE0001F8
7E0001F0
7E0003F0
3F0003E0
3F0007E0
1F8007E0
1F8007C0
1FC00FC0
0FC00F80
0FC01F80
07E01F80
07E01F00
03F03F00
03F03F00
01F07E00
01F87E00
01F87C00
00FCFC00
00FCFC00
007EF800
007FF800
003FF000
003FF000
003FF000
001FE000
001FE000
000FC000
000FC000
000FC000
000F8000
001F8000
001F8000
083F0000
383F0000
7E7E0000
7FFE0000
3FFC0000
3FFC0000
0FF80000
07E00000
ENDCHAR
STARTCHAR 00FE
ENCODING 254
SWIDTH 586 0
DWIDTH 34 0
BBX 27 54 4 -12
BITMAP
F8000000
F8000000
F8000000
F8000000
F8000000
F8000000
F8000000
F8000000
F8000000
F8000000
F8000000
F8000000
F81FE000
F87FF800
F8FFFE00
FBFFFF00
FFC07F00
FF801F80
FF001FC0
FE000FC0
FE0007C0
FC0007E0
FC0007E0
FC0003E0
FC0003E0
FC0003E0
F80003E0
F80003E0
F80003E0
FC0003E0
FC0003E0
FC0003E0
FC0007E0
FC0007E0
FE0007C0
FE000FC0
FF000FC0
FF801F80
FFC07F00
FBFFFF00
F9FFFE00
F87FF800
F81FE000
F8000000
F8000000
F8000000
F8000000
F8000000
F8000000
F8000000
F8000000
F8000000
F8000000
F8000000
ENDCHAR
STARTCHAR 00FF
ENCODING 255
SWIDTH 534 0
DWIDTH 31 0
BBX 29 54 1 -12
BITMAP
03E03E00
03E03E00
03E03E00
03E03E00
03E03E00
00000000
00000000
00000000
00000000
00000000
00000000
00000000
00000000
FC0001F8
FC0001F8
7E0001F0
7E0003F0
3F0003E0
3F0007E0
3F8007E0
1F8007C0
1F800FC0
0FC00FC0
0FC00F80
07E01F80
07E01F00
07E03F00
03F03F00
03F03E00
01F87E00
01F87C00
00FCFC00
00FCFC00
00FCF800
007FF800
007FF800
003FF000
003FF000
001FE000
001FE000
001FE000
000FC000
000FC000
000F8000
001F8000
001F8000
001F0000
003F0000
003E0000
003E0000
007E0000
007C0000
007C0000
00FC0000
ENDCHAR
STARTCHAR 0131
ENCODING 305
SWIDTH 224 0
DWIDTH 13 0
BBX 5 29 4 0
BITMAP
F8
F8
F8
F8
F8
F8
F8
F8
F8
F8
F8
F8
F8
F8
F8
F8
F8
F8
F8
F8
F8
F8
F8
F8
F8
F8
F8
F8
F8
ENDCHAR
STARTCHAR 0141
ENCODING 321
SWIDTH 586 0
DWIDTH 34 0
BBX 31 42 2 0
BITMAP
03E00000
03E00000
03E00000
03E00000
03E00000
03E00000
03E00000
03E00000
03E04000
03E0C000
03E1C000
03E3C000
03E7C000
03EF8000
03FF0000
03FE0000
03FC0000
03F80000
03F00000
03E00000
07E00000
0FE00000
1FE00000
3FE00000
7FE00000
FBE00000
F3E00000
E3E00000
C3E00000
83E00000
03E00000
03E00000
03E00000
03E00000
03E00000
03E00000
03E00000
03FFFFFE
03FFFFFE
03FFFFFE
03FFFFFE
03FFFFFE
ENDCHAR
STARTCHAR 0142
ENCODING 322
SWIDTH 362 0
DWIDTH 21 0
BBX 16 42 3 0
BITMAP
07C0
07C0
07C0
07C0
07C0
07C0
07C0
07C0
07C0
07C1
07C3
07C7
07CF
07DF
07FE
07FC
07F8
07F0
07E0
07C0
0FC0
1FC0
3FC0
7FC0
FFC0
F7C0
E7C0
C7C0
87C0
07C0
07C0
07C0
07C0
07C0
07C0
07C0
07C0
07C0
07C0
07C0
07C0
07C0
ENDCHAR
STARTCHAR 0152
ENCODING 338
SWIDTH 1000 0
DWIDTH 58 0
BBX 52 43 3 0
BITMAP
0007FFFFFFFFF0
003FFFFFFFFFF0
007FFFFFFFFFF0
01FFFFFFFFFFF0
03FFFFFFFFFFF0
07FC00FF800000
07F0001F800000
0FE0000F800000
1FC0000F800000
1F80000F800000
3F00000F800000
3E00000F800000
7E00000F800000
7E00000F800000
7C00000F800000
7C00000F800000
FC00000F800000
FC00000F800000
FC00000FFFFFC0
F800000FFFFFC0
F800000FFFFFC0
F800000FFFFFC0
F800000FFFFFC0
FC00000F800000
FC00000F800000
FC00000F800000
FC00000F800000
7C00000F800000
7C00000F800000
7E00000F800000
3E00000F800000
3F00000F800000
3F00000F800000
1F80000F800000
1FC0000F800000
0FE0001F800000
07F0007F800000
03FE03FFFFFFF0
01FFFFFFFFFFF0
00FFFFFFFFFFF0
007FFFFFFFFFF0
001FFFFFFFFFF0
0003FE00000000
ENDCHAR
STARTCHAR 0153
ENCODING 339
SWIDTH 931 0
DWIDTH 54 0
BBX 48 31 3 -1
BITMAP
003FC000FE00
01FFF007FFC0
07FFFC0FFFF0
0FFFFE1FFFF8
1FC07E3F01FC
3F803F7E007C
3F001FFC007E
7E000FF8003E
7E000FF0003F
7C0007F0001F
FC0007E0001F
FC0007E0001F
FC0007E0001F
FC0007FFFFFF
F80003FFFFFF
F80003FFFFFF
F80003FFFFFF
FC0007E00000
FC0007E00000
FC0007E00000
7C0007F00000
7C0007F0001F
7E000FF0001F
7E000FF8003F
3F001FF8003E
1F803F7C007E
1FC07E7F01FC
0FFFFC3FFFF8
07FFF81FFFF0
01FFF007FFC0
003F8001FE00
ENDCHAR
STARTCHAR 0160
ENCODING 352
SWIDTH 655 0
DWIDTH 38 0
BBX 31 59 3 -1
BITMAP
00E00F00
00F00F00
00781E00
00783C00
003C7C00
003E7800
001FF800
001FF000
000FF000
000FE000
00000000
00000000
00000000
00000000
00000000
00000000
007FFC00
01FFFF00
03FFFFC0
0FFFFFE0
1FFFFFF0
1FC007F0
3F0001F8
3E0001F8
7E0000F8
7E0000F8
7C000000
7C000000
7E000000
7E000000
7F000000
3F800000
3FE00000
1FFC0000
1FFFE000
0FFFFE00
03FFFF80
00FFFFE0
000FFFF0
00007FF8
000007FC
000001FC
000000FE
0000007E
0000003E
0000003E
F800003E
FC00003E
FC00003E
FC00003E
7E00007E
7F0000FC
3F8001FC
3FE00FF8
1FFFFFF0
0FFFFFE0
07FFFFC0
01FFFE00
003FE000
ENDCHAR
STARTCHAR 0161
ENCODING 353
SWIDTH 500 0
DWIDTH 29 0
BBX 23 46 3 -1
BITMAP
0E00F0
0F01E0
0783E0
0783C0
03C7C0
03EF80
01FF80
01FF00
00FE00
00FE00
000000
000000
000000
000000
000000
01FF00
0FFFE0
1FFFF0
3FFFF8
7F01FC
7E00FC
7C007C
7C007C
7C007C
7C0000
7E0000
7F0000
7FE000
3FFF00
1FFFE0
0FFFF8
01FFFC
000FFC
0001FE
00007E
00003E
00003E
F8003E
FC003E
FC007E
7C007E
7F01FC
3FFFF8
1FFFF0
0FFFC0
01FE00
ENDCHAR
STARTCHAR 0178
ENCODING 376
SWIDTH 672 0
DWIDTH 39 0
BBX 37 55 1 0
BITMAP
003E03E000
003E03E000
003E03E000
003E03E000
003E03E000
0000000000
0000000000
0000000000
0000000000
0000000000
0000000000
0000000000
0000000000
FE000003F8
7F000003F0
7F000007F0
3F80000FE0
1FC0000FC0
1FC0001FC0
0FE0001F80
07E0003F00
07F0007F00
03F0007E00
03F800FC00
01FC00FC00
00FC01F800
00FE01F800
007E03F000
007F07E000
003F87E000
001F8FC000
001FCF8000
000FDF8000
0007FF0000
0007FE0000
0003FE0000
0003FC0000
0001FC0000
0000F80000
0000F80000
0000F80000
0000F80000
0000F80000
0000F80000
0000F80000
0000F80000
0000F80000
0000F80000
0000F80000
0000F80000
0000F80000
0000F80000
0000F80000
0000F80000
0000F80000
ENDCHAR
STARTCHAR 017D
ENCODING 381
SWIDTH 637 0
DWIDTH 37 0
BBX 31 58 3 0
BITMAP
03C01E00
01E03C00
01F03C00
00F07800
0078F800
007DF000
003FF000
003FE000
001FE000
001FC000
00000000
00000000
00000000
00000000
00000000
00000000
7FFFFFFC
7FFFFFFC
7FFFFFFC
7FFFFFFC
7FFFFFFC
000001FC
000003FC
000003F8
000007F0
00000FF0
00001FE0
00001FC0
00003F80
00007F00
0000FF00
0001FE00
0001FC00
0003F800
0007F800
000FF000
000FE000
001FC000
003FC000
007F8000
007F0000
00FE0000
01FC0000
03FC0000
07F80000
07F00000
0FE00000
1FE00000
3FC00000
3F800000
7F000000
FE000000
FE000000
FFFFFFFE
FFFFFFFE
FFFFFFFE
FFFFFFFE
FFFFFFFE
ENDCHAR
STARTCHAR 017E
ENCODING 382
SWIDTH 465 0
DWIDTH 27 0
BBX 21 45 3 0
BITMAP
7803C0
3C0780
1E0780
1E0F00
0F1F00
0FBE00
07FE00
07FC00
03FC00
03F800
000000
000000
000000
000000
000000
000000
7FFFF8
7FFFF8
7FFFF8
7FFFF8
0001F8
0003F0
0007F0
000FE0
000FC0
001F80
003F80
007F00
007E00
00FC00
01FC00
01F800
03F000
07E000
0FE000
0FC000
1F8000
3F0000
7F0000
7E0000
FC0000
FFFFF8
FFFFF8
FFFFF8
FFFFF8
ENDCHAR
STARTCHAR 0192
ENCODING 402
SWIDTH 500 0
DWIDTH 29 0
BBX 34 54 -4 -11
BITMAP
0000007FC0
000001FFC0
000003FFC0
000003F080
000007E000
000007C000
00000F8000
00000F8000
00001F8000
00001F0000
00001F0000
00001F0000
00003E0000
000FFFFC00
000FFFFC00
000FFFFC00
001FFFF800
00007C0000
00007C0000
0000FC0000
0000F80000
0000F80000
0000F80000
0001F80000
0001F00000
0001F00000
0001F00000
0003E00000
0003E00000
0003E00000
0007E00000
0007C00000
0007C00000
0007C00000
000FC00000
000F800000
000F800000
000F800000
001F800000
001F000000
001F000000
001F000000
003E000000
003E000000
003E000000
007C000000
007C000000
00FC000000
01F8000000
03F8000000
7FF0000000
FFE0000000
FFC0000000
FE00000000
ENDCHAR
STARTCHAR 02C6
ENCODING 710
SWIDTH 293 0
DWIDTH 17 0
BBX 17 10 0 35
BITMAP
07F000
0FF000
0FF800
1FF800
1F7C00
3E3C00
3C1E00
781F00
780F00
F00780
ENDCHAR
STARTCHAR 02C7
ENCODING 711
SWIDTH 293 0
DWIDTH 17 0
BBX 17 10 0 35
BITMAP
F00780
780F00
781F00
3C1E00
3E3C00
1F7C00
1FF800
0FF800
0FF000
07F000
ENDCHAR
STARTCHAR 02D8
ENCODING 728
SWIDTH 275 0
DWIDTH 16 0
BBX 16 7 0 35
BITMAP
E007
F007
781F
7FFE
3FFC
1FF8
07E0
ENDCHAR
STARTCHAR 02D9
ENCODING 729
SWIDTH 103 0
DWIDTH 6 0
BBX 5 6 0 35
BITMAP
F8
F8
F8
F8
F8
F8
ENDCHAR
STARTCHAR 02DA
ENCODING 730
SWIDTH 224 0
DWIDTH 13 0
BBX 13 13 0 35
BITMAP
0F80
3FE0
78F0
6030
E038
C018
C018
C018
E038
6030
78F0
3FE0
0F80
ENDCHAR
STARTCHAR 02DB
ENCODING 731
SWIDTH 189 0
DWIDTH 11 0
BBX 9 13 0 -13
BITMAP
0C00
1C00
3800
3800
7000
F000
F000
F000
F000
FF80
FF80
7F80
3F80
ENDCHAR
STARTCHAR 02DC
ENCODING 732
SWIDTH 293 0
DWIDTH 17 0
BBX 17 6 0 36
BITMAP
1E0780
3FC780
7FFF00
7FFF00
F1FE00
E03800
ENDCHAR
STARTCHAR 02DD
ENCODING 733
SWIDTH 293 0
DWIDTH 17 0
BBX 17 10 0 35
BITMAP
0F8F80
1F0F00
1F1F00
1E1E00
3C3E00
3C3C00
783800
707800
707000
E0E000
ENDCHAR
STARTCHAR 0394
ENCODING 916
SWIDTH 637 0
DWIDTH 37 0
BBX 36 42 1 1
BITMAP
0000200000
0000300000
0000700000
0000700000
0000F80000
0000F80000
0000FC0000
0001FC0000
0001FC0000
0003FE0000
0003FE0000
00077F0000
00077F0000
000E3F0000
000E3F8000
001C1F8000
001C1FC000
00181FC000
00380FC000
00380FE000
007007E000
007007F000
00E007F000
00E003F000
01C003F800
01C001F800
038001FC00
038001FC00
070000FC00
070000FE00
0600007E00
0E00007F00
0E00007F00
1C00003F00
1C00003F80
3800001F80
3800001FC0
7000001FC0
7000000FC0
FFFFFFFFE0
FFFFFFFFE0
FFFFFFFFF0
ENDCHAR
STARTCHAR 03A9
ENCODING 937
SWIDTH 793 0
DWIDTH 46 0
BBX 42 43 2 0
BITMAP
0000FFC00000
000FFFFC0000
003F807F0000
007E000FC000
01F80007E000
03F00003F000
07E00001F800
0FE00000FC00
0FC00000FC00
1FC000007E00
1F8000007E00
3F8000007F00
3F8000007F00
3F0000003F00
7F0000003F80
7F0000003F80
7F0000003F80
7F0000003F80
7F0000003F80
7F0000003F80
7F0000003F80
7F0000003F80
7F0000003F80
3F8000007F00
3F8000007F00
3F8000007F00
1FC000007E00
1FC00000FE00
0FC00000FC00
07E00001F800
03F00003F000
01F80007E000
00FE001FC000
003F807F0000
800780780040
800380700040
C003807000C0
FFFF807FFFC0
FFFF807FFFC0
FFFF807FFFC0
FFFF807FFFC0
FFFF80FFFFC0
FFFF80FFFFC0
ENDCHAR
STARTCHAR 03BC
ENCODING 956
SWIDTH 637 0
DWIDTH 37 0
BBX 32 42 4 -12
BITMAP
F8000F80
F8000F80
F8000F80
F8000F80
F8000F80
F8000F80
F8000F80
F8000F80
F8000F80
F8000F80
F8000F80
F8000F80
F8000F80
F8000F80
F8000F80
F8000F80
F8000F80
F8000F80
F8000F80
F8000F80
F8000F80
F8000F80
FC001F80
FC001F80
FE003F80
FF007FC0
FF80FFC1
FFFFEFFF
FFFFC7FF
FFFF83FF
F9FC01FE
F8000000
F8000000
F8000000
F8000000
F8000000
F8000000
F8000000
F8000000
F8000000
F8000000
F8000000
ENDCHAR
STARTCHAR 03C0
ENCODING 960
SWIDTH 568 0
DWIDTH 33 0
BBX 31 31 1 -1
BITMAP
03FFFFFE
0FFFFFFE
1FFFFFFE
3FFFFFFE
7FFFFFFE
70701E00
E0701E00
C0F01E00
80F01E00
00F01E00
00F01C00
00F01C00
00F03C00
00F03C00
00E03C00
01E03C00
01E03C00
01E03C00
01E03C00
01E03C00
01E03C00
03E03C02
03C03E06
07C03E06
0FC03F0E
1FC01FFC
1FC01FFC
3F801FF8
1F800FF8
1F8007E0
0F0003C0
ENDCHAR
STARTCHAR 2013
ENCODING 8211
SWIDTH 500 0
DWIDTH 29 0
BBX 29 4 0 12
BITMAP
FFFFFFF8
FFFFFFF8
FFFFFFF8
FFFFFFF8
ENDCHAR
STARTCHAR 2014
ENCODING 8212
SWIDTH 1000 0
DWIDTH 58 0
BBX 58 4 0 12
BITMAP
FFFFFFFFFFFFFFC0
FFFFFFFFFFFFFFC0
FFFFFFFFFFFFFFC0
FFFFFFFFFFFFFFC0
ENDCHAR
STARTCHAR 2018
ENCODING 8216
SWIDTH 258 0
DWIDTH 15 0
BBX 10 15 2 27
BITMAP
03C0
03C0
07C0
07C0
07C0
0F80
0F80
1F80
1F80
3F00
3F00
3F00
7F00
7E00
FE00
ENDCHAR
STARTCHAR 2019
ENCODING 8217
SWIDTH 258 0
DWIDTH 15 0
BBX 10 15 2 27
BITMAP
1FC0
1FC0
1FC0
1F80
1F80
3F00
3F00
3E00
3E00
7E00
7C00
7C00
7800
F800
F000
ENDCHAR
STARTCHAR 201A
ENCODING 8218
SWIDTH 258 0
DWIDTH 15 0
BBX 10 15 2 -7
BITMAP
1FC0
1FC0
1FC0
1F80
1F80
3F00
3F00
3E00
3E00
7E00
7C00
7C00
7800
F800
F000
ENDCHAR
STARTCHAR 201C
ENCODING 8220
SWIDTH 431 0
DWIDTH 25 0
BBX 21 15 2 27
BITMAP
03C078
03C0F8
07C0F8
07C0F0
07C1F0
0F81F0
0F83F0
1F83E0
1F83E0
3F07E0
3F07E0
3F0FE0
7F0FC0
7E1FC0
FE1FC0
ENDCHAR
STARTCHAR 201D
ENCODING 8221
SWIDTH 431 0
DWIDTH 25 0
BBX 21 15 2 27
BITMAP
1FC3F8
1FC3F8
1FC3F0
1F87F0
1F87E0
3F07E0
3F07C0
3E0FC0
3E0FC0
7E0F80
7C0F80
7C0F00
781F00
F81E00
F01E00
ENDCHAR
STARTCHAR 201E
ENCODING 8222
SWIDTH 431 0
DWIDTH 25 0
BBX 21 15 2 -7
BITMAP
1FC3F8
1FC3F8
1FC3F0
1F87F0
1F87E0
3F07E0
3F07C0
3E0FC0
3E0FC0
7E0F80
7C0F80
7C0F00
781F00
F81E00
F01E00
ENDCHAR
STARTCHAR 2020
ENCODING 8224
SWIDTH 568 0
DWIDTH 33 0
BBX 27 52 3 -10
BITMAP
001F0000
001F0000
001F0000
001F0000
001F0000
001F0000
001F0000
001F0000
001F0000
001F0000
001F0000
001F0000
001F0000
FFFFFFE0
FFFFFFE0
FFFFFFE0
FFFFFFE0
001F0000
001F0000
001F0000
001F0000
001F0000
001F0000
001F0000
001F0000
001F0000
001F0000
001F0000
001F0000
001F0000
001F0000
001F0000
001F0000
001F0000
001F0000
001F0000
001F0000
001F0000
001F0000
001F0000
001F0000
001F0000
001F0000
001F0000
001F0000
001F0000
001F0000
001F0000
001F0000
001F0000
001F0000
001F0000
ENDCHAR
STARTCHAR 2021
ENCODING 8225
SWIDTH 568 0
DWIDTH 33 0
BBX 27 52 3 -10
BITMAP
001F0000
001F0000
001F0000
001F0000
001F0000
001F0000
001F0000
001F0000
001F0000
001F0000
001F0000
001F0000
001F0000
FFFFFFE0
FFFFFFE0
FFFFFFE0
FFFFFFE0
001F0000
001F0000
001F0000
001F0000
001F0000
001F0000
001F0000
001F0000
001F0000
001F0000
001F0000
001F0000
001F0000
001F0000
001F0000
001F0000
001F0000
001F0000
FFFFFFE0
FFFFFFE0
FFFFFFE0
FFFFFFE0
001F0000
001F0000
001F0000
001F0000
001F0000
001F0000
001F0000
001F0000
001F0000
001F0000
001F0000
001F0000
001F0000
ENDCHAR
STARTCHAR 2022
ENCODING 8226
SWIDTH 293 0
DWIDTH 17 0
BBX 13 13 2 13
BITMAP
0F80
3FE0
7FF0
7FF0
FFF8
FFF8
FFF8
FFF8
FFF8
7FF0
7FF0
3FE0
0F80
ENDCHAR
STARTCHAR 2026
ENCODING 8230
SWIDTH 1000 0
DWIDTH 58 0
BBX 52 7 3 0
BITMAP
FC0001F80003F0
FC0001F80003F0
FC0001F80003F0
FC0001F80003F0
FC0001F80003F0
FC0001F80003F0
FC0001F80003F0
ENDCHAR
STARTCHAR 2030
ENCODING 8240
SWIDTH 1327 0
DWIDTH 77 0
BBX 71 44 3 0
BITMAP
000000001E00000000
000000003C00000000
01FC00003C00000000
07FF00007800000000
1FFFC0007000000000
3FFFE000F000000000
3F07E001E000000000
7E03F001E000000000
7C01F003C000000000
FC01F803C000000000
FC01F8078000000000
FC01F8070000000000
F800F80F0000000000
F800F81E0000000000
FC01F81E0000000000
FC01F83C0000000000
FC01F83C0000000000
7C01F0780000000000
7E03F0780000000000
3F07E0F00000000000
1FFFC0E00000000000
0FFF81E01F00003E00
07FF03C0FFE001FFC0
00F803C1FFF807FFF0
00000783FFFC0FFFF8
00000787E0FC1FC1F8
00000F0FC07E1F80FC
00000E0F803F3F007E
00001E1F803F3F007E
00001C1F801F3E003E
00003C1F801F3E003E
0000781F001F3E003E
0000781F001F3E003E
0000F01F001F3E003E
0000F01F801F3E003E
0001E01F801F3E003E
0001C01F801F3E003E
0003C00F803F3F007E
0007800FC03E1F007C
00078007E07E1F80FC
000F0007FFFC0FFFF8
000F0003FFF807FFF0
001E0000FFF003FFE0
001C00003F80007F00
ENDCHAR
STARTCHAR 2039
ENCODING 8249
SWIDTH 362 0
DWIDTH 21 0
BBX 12 23 4 3
BITMAP
00F0
01F0
03E0
03E0
07C0
0F80
0F80
1F00
3F00
3E00
7C00
FC00
7C00
3E00
3F00
1F00
0F80
0F80
07C0
03E0
01E0
01F0
00F0
ENDCHAR
STARTCHAR 203A
ENCODING 8250
SWIDTH 362 0
DWIDTH 21 0
BBX 12 23 5 3
BITMAP
F000
F800
7C00
7C00
3E00
1F00
1F00
0F80
0FC0
07C0
03E0
03F0
03E0
07C0
0FC0
0F80
1F00
1F00
3E00
7C00
7C00
F800
F000
ENDCHAR
STARTCHAR 2044
ENCODING 8260
SWIDTH 551 0
DWIDTH 32 0
BBX 28 44 2 -1
BITMAP
000000F0
000000F0
000001E0
000001E0
000003C0
000007C0
00000780
00000F00
00000F00
00001E00
00001E00
00003C00
00003C00
00007800
0000F000
0000F000
0001E000
0001E000
0003C000
0003C000
00078000
000F8000
000F0000
001E0000
001E0000
003C0000
003C0000
00780000
00780000
00F00000
01E00000
01E00000
03C00000
03C00000
07800000
07800000
0F000000
0F000000
1E000000
3C000000
3C000000
78000000
78000000
F0000000
ENDCHAR
STARTCHAR 2122
ENCODING 8482
SWIDTH 655 0
DWIDTH 38 0
BBX 32 16 3 25
BITMAP
FFF1F01F
FFF1F01F
0701F01F
0701F83F
0701F83F
0701D837
0701DC77
0701CC77
0701CC67
0701CEE7
0701C6C7
0701C6C7
0701C7C7
0701C387
0701C387
0701C387
ENDCHAR
STARTCHAR 2202
ENCODING 8706
SWIDTH 551 0
DWIDTH 32 0
BBX 26 46 3 -1
BITMAP
03FC0000
1FFF8000
1FFFC000
0F01F000
0800F800
00003800
00003C00
00001E00
00000E00
00000F00
00000F00
00000700
00000780
00000780
00000780
00000780
000007C0
000007C0
000007C0
000007C0
000007C0
00FF07C0
03FFC7C0
07E0E7C0
1FC03FC0
1F801FC0
3F000FC0
7E000FC0
7E000F80
7C000F80
FC000F80
FC000F80
F8001F80
F8001F00
F8001F00
F8001F00
F8003E00
F8003E00
F8007C00
78007C00
7C00F800
3C00F000
1E01F000
0F07C000
07FF8000
00FE0000
ENDCHAR
STARTCHAR 220F
ENCODING 8719
SWIDTH 862 0
DWIDTH 50 0
BBX 48 51 1 -6
BITMAP
7FFFFFFFFFFE
1FFFFFFFFFF8
07FFFFFFFFE0
07F800001FC0
03F800001FC0
03F800001FC0
03F800001FC0
03F800001FC0
03F800001FC0
03F800001FC0
03F800001FC0
03F800001FC0
03F800001FC0
03F800001FC0
03F800001FC0
03F800001FC0
03F800001FC0
03F800001FC0
03F800001FC0
03F800001FC0
03F800001FC0
03F800001FC0
03F800001FC0
03F800001FC0
03F800001FC0
03F800001FC0
03F800001FC0
03F800001FC0
03F800001FC0
03F800001FC0
03F800001FC0
03F800001FC0
03F800001FC0
03F800001FC0
03F800001FC0
03F800001FC0
03F800001FC0
03F800001FC0
03F800001FC0
03F800001FC0
03F800001FC0
03F800001FC0
03F800001FC0
03F800001FC0
03F800001FC0
03F800001FC0
03F800001FC0
03FC00003FC0
07FC00003FE0
3FFF8001FFFC
FFFFE007FFFF
ENDCHAR
STARTCHAR 2211
ENCODING 8721
SWIDTH 741 0
DWIDTH 43 0
BBX 40 51 1 -7
BITMAP
FFFFFFFFF0
7FFFFFFFF0
3FFFFFFFF8
1FE00001F8
1FE0000078
0FF0000038
07F8000018
03FC000018
01FE000018
01FE000008
00FF000000
007F800000
003FC00000
003FC00000
001FE00000
000FF00000
0007F80000
0007F80000
0003FC0000
0001FE0000
0000FF0000
0000FF0000
00007F8000
00003FC000
00001FC000
00000FC000
00000F8000
00000F0000
00000E0000
00001C0000
0000380000
0000700000
0000F00000
0001E00000
0003C00000
0007800000
0007000000
000E000000
001C000001
003C000001
0078000003
00F0000003
01E0000007
03C000000E
038000003E
07FFFFFFFE
0FFFFFFFFE
1FFFFFFFFE
3FFFFFFFFC
7FFFFFFFFC
FFFFFFFFFC
ENDCHAR
STARTCHAR 2212
ENCODING 8722
SWIDTH 1000 0
DWIDTH 58 0
BBX 35 4 12 15
BITMAP
FFFFFFFFE0
FFFFFFFFE0
FFFFFFFFE0
FFFFFFFFE0
ENDCHAR
STARTCHAR 221A
ENCODING 8730
SWIDTH 568 0
DWIDTH 33 0
BBX 32 41 1 0
BITMAP
0000000F
0000001F
00000018
00000018
00000018
00000038
00000030
00000030
00000070
00000060
00000060
00000060
000000E0
060000C0
0F0000C0
3F0000C0
F78001C0
47800180
03C00180
03C00380
01E00300
01E00300
00F00300
00F00700
00780600
00780600
003C0600
003C0E00
001E0C00
001E0C00
000F1C00
000F9800
00079800
0007D800
0003F800
0001F000
0001F000
0000F000
0000F000
00006000
00006000
ENDCHAR
STARTCHAR 221E
ENCODING 8734
SWIDTH 1000 0
DWIDTH 58 0
BBX 39 17 10 9
BITMAP
03E0000F80
0FF8003FE0
3FFE00FFF0
3C1F01F078
780787C03C
7003EF801C
E001FF000E
E0007C000E
E00078000E
E0007C000E
E000EE000E
7003EF001C
7807C3C03C
3C1F01F078
1FFE00FFF0
0FF8003FE0
03C0000F80
ENDCHAR
STARTCHAR 222B
ENCODING 8747
SWIDTH 465 0
DWIDTH 27 0
BBX 23 55 2 -12
BITMAP
0000FC
0003FE
0007FE
000FFE
000E7E
001E1C
001E00
001C00
001C00
003C00
003C00
003C00
003C00
003C00
003C00
003C00
003C00
003C00
003C00
003C00
003C00
003C00
007C00
007C00
007C00
007C00
007C00
007C00
007C00
007C00
007C00
007C00
007C00
007C00
007C00
007C00
007800
007800
007800
007800
007800
007800
007800
007800
007800
00F800
00F000
00F000
00F000
F0E000
FCE000
FFC000
FFC000
FF0000
7C0000
ENDCHAR
STARTCHAR 2248
ENCODING 8776
SWIDTH 1000 0
DWIDTH 58 0
BBX 34 17 12 9
BITMAP
07FC000040
1FFF8001C0
7FFFF003C0
FE3FFFFFC0
F003FFFF80
C0007FFE00
800007F800
0000000000
0000000000
0000000000
07FC000040
1FFF8001C0
7FFFF003C0
FE3FFFFFC0
F003FFFF80
C0007FFE00
800007F800
ENDCHAR
STARTCHAR 2260
ENCODING 8800
SWIDTH 1000 0
DWIDTH 58 0
BBX 35 27 12 4
BITMAP
0000000800
0000001C00
0000003E00
0000007C00
000000F800
000001F000
FFFFFFFFE0
FFFFFFFFE0
FFFFFFFFE0
FFFFFFFFE0
00003E0000
00007C0000
0000F80000
0001F00000
0003E00000
0007C00000
000F800000
FFFFFFFFE0
FFFFFFFFE0
FFFFFFFFE0
FFFFFFFFE0
01F0000000
03E0000000
07C0000000
0F80000000
0700000000
0200000000
ENDCHAR
STARTCHAR 2264
ENCODING 8804
SWIDTH 1000 0
DWIDTH 58 0
BBX 35 32 12 0
BITMAP
00000000E0
00000007E0
0000003FE0
000003FFC0
00001FFC00
0000FFE000
0007FF0000
003FF00000
01FF800000
1FF8000000
FFC0000000
FE00000000
F000000000
FE00000000
7FE0000000
0FFC000000
01FF800000
003FF80000
0003FF0000
00007FF000
00000FFE00
000001FFC0
0000003FE0
00000007E0
0000000060
0000000000
0000000000
0000000000
0000000000
FFFFFFFFE0
FFFFFFFFE0
FFFFFFFFE0
ENDCHAR
STARTCHAR 2265
ENCODING 8805
SWIDTH 1000 0
DWIDTH 58 0
BBX 35 32 12 0
BITMAP
E000000000
FC00000000
FF80000000
7FF0000000
0FFF000000
00FFE00000
001FFC0000
0001FF8000
00003FF000
000007FE00
0000007FC0
0000000FE0
00000001E0
0000001FE0
000000FFC0
000007FE00
00007FF000
0003FF0000
001FF80000
01FFC00000
0FFE000000
FFF0000000
FF80000000
F800000000
C000000000
0000000000
0000000000
0000000000
0000000000
FFFFFFFFE0
FFFFFFFFE0
FFFFFFFFE0
ENDCHAR
STARTCHAR 25CA
ENCODING 9674
SWIDTH 534 0
DWIDTH 31 0
BBX 27 45 2 0
BITMAP
001F0000
001F0000
003F8000
003B8000
007BC000
0071C000
00F1E000
00E0E000
01E0F000
01C07000
03C07800
03803800
07803C00
07001C00
0F001E00
0E000F00
1E000700
1C000780
3C000380
780003C0
780001C0
F00001E0
F00001E0
700001C0
780003C0
38000380
3C000780
1C000700
1E000F00
0E000E00
0F001E00
07001C00
07803C00
03803800
03C07800
01C07000
01E0F000
00E0E000
00F1E000
0071C000
007BC000
003B8000
003F8000
001F0000
001F0000
ENDCHAR
STARTCHAR FB01
ENCODING 64257
SWIDTH 586 0
DWIDTH 34 0
BBX 29 42 1 1
BITMAP
007FE0F8
00FFE0F8
01FFE0F8
03FC20F8
03F000F8
03E00000
03E00000
03E00000
03E00000
03E00000
03E00000
03E00000
03E00000
FFFFC0F8
FFFFC0F8
FFFFC0F8
FFFFC0F8
03E000F8
03E000F8
03E000F8
03E000F8
03E000F8
03E000F8
03E000F8
03E000F8
03E000F8
03E000F8
03E000F8
03E000F8
03E000F8
03E000F8
03E000F8
03E000F8
03E000F8
03E000F8
03E000F8
03E000F8
03E000F8
03E000F8
03E000F8
03E000F8
03E000F8
ENDCHAR
STARTCHAR FB02
ENCODING 64258
SWIDTH 586 0
DWIDTH 34 0
BBX 29 42 1 1
BITMAP
007FE0F8
00FFE0F8
01FFE0F8
03FC60F8
03F000F8
03E000F8
03E000F8
03E000F8
03E000F8
03E000F8
03E000F8
03E000F8
03E000F8
FFFFC0F8
FFFFC0F8
FFFFC0F8
FFFFC0F8
03E000F8
03E000F8
03E000F8
03E000F8
03E000F8
03E000F8
03E000F8
03E000F8
03E000F8
03E000F8
03E000F8
03E000F8
03E000F8
03E000F8
03E000F8
03E000F8
03E000F8
03E000F8
03E000F8
03E000F8
03E000F8
03E000F8
03E000F8
03E000F8
03E000F8
ENDCHAR
ENDFONT
